<?xml version="1.0" standalone="no"?>
<!DOCTYPE svg PUBLIC "-//W3C//DTD SVG 1.1//EN" "http://www.w3.org/Graphics/SVG/1.1/DTD/svg11.dtd" >
<svg xmlns="http://www.w3.org/2000/svg">
<metadata></metadata>
<defs>
<font id="pf_din_text_cond_prothin" horiz-adv-x="839" >
<font-face units-per-em="2048" ascent="1536" descent="-512" />
<missing-glyph horiz-adv-x="403" />
<glyph unicode="&#xfb01;" horiz-adv-x="794" d="M45 936v74h115v233q0 131 73.5 188.5t180.5 57.5q158 0 250 -92l-56 -64q-47 45 -96 57.5t-98 12.5q-162 0 -162 -162v-231h407v-1010h-90v936h-317v-936h-92v936h-115z" />
<glyph unicode="&#xfb02;" horiz-adv-x="843" d="M41 934v76h119v229q0 131 70.5 194.5t183.5 63.5q47 0 106.5 -10t138.5 -39v-1219q0 -74 32 -115.5t112 -41.5h20v-78h-30q-106 0 -164 47t-58 170v361.5v327v274v208.5q-43 16 -81.5 21.5t-77.5 5.5q-86 0 -124 -43t-38 -135v-221h215v-76h-215v-934h-90v934h-119z" />
<glyph horiz-adv-x="0" />
<glyph horiz-adv-x="682" />
<glyph unicode=" "  horiz-adv-x="403" />
<glyph unicode="&#x09;" horiz-adv-x="403" />
<glyph unicode="&#xa0;" horiz-adv-x="403" />
<glyph unicode="!" horiz-adv-x="421" d="M160 0v111h104v-111h-104zM164 1425h94q-2 -59 -3 -144t-2 -184.5t-2 -206t-2 -205.5t-2 -184t-1 -145h-70q0 59 -1 144.5t-2 184.5t-2 205.5t-2 206t-3 184.5t-2 144z" />
<glyph unicode="&#x22;" horiz-adv-x="444" d="M102 1063v362h72v-362h-72zM276 1063v362h72v-362h-72z" />
<glyph unicode="#" d="M12 457v63h168q2 16 12.5 73.5t21.5 122t20.5 122t11.5 73.5h-158v64h168q2 18 13.5 84.5t23.5 142.5t23.5 142.5t13.5 85.5h67l-73 -455h268q2 18 13 84.5t23.5 142.5t24 142.5t13.5 85.5h67l-74 -455h166v-64h-176l-65 -391h161v-63h-172q-2 -12 -7 -47t-12 -82 t-15.5 -99.5t-15.5 -98.5t-13 -82l-8 -48h-68l72 457h-266l-76 -457h-68l76 457h-160zM250 520h266q2 16 12.5 73.5t20.5 122t20.5 122t12.5 73.5h-269z" />
<glyph unicode="$" d="M29 209l73 45q39 -72 110 -125t177 -59v624q-84 31 -147.5 62.5t-105.5 74.5t-62.5 98.5t-20.5 131.5q0 154 85 256t251 113v172h57v-172q129 -6 208 -59.5t116 -125.5l-76 -51q-37 66 -95 105.5t-153 46.5v-580q88 -25 155 -56.5t111 -77.5t65.5 -110.5t21.5 -152.5 q0 -170 -86 -272.5t-267 -110.5v-215h-57v215q-137 6 -224 65.5t-136 157.5zM143 1061q0 -57 17.5 -99t48.5 -74t76 -55.5t104 -46.5v560q-117 -8 -181.5 -88t-64.5 -197zM446 70q133 8 197 89t64 208q0 74 -18.5 123t-52.5 82.5t-82 56t-108 45.5v-604z" />
<glyph unicode="%" horiz-adv-x="1228" d="M72 760v473q0 96 64.5 146.5t154.5 50.5q88 0 151.5 -50.5t63.5 -146.5v-473q0 -96 -64.5 -147.5t-150.5 -51.5q-90 0 -154.5 51.5t-64.5 147.5zM147 764q0 -59 39 -96t105 -37q61 0 100 37t39 96v467q0 59 -39 96t-100 37q-66 0 -105 -37t-39 -96v-467zM193 -35 l753 1497h74l-756 -1497h-71zM717 188v478q0 47 17.5 83.5t48 61.5t70.5 37t83 12q86 0 150.5 -49t64.5 -145v-478q0 -96 -64.5 -146t-150.5 -50q-43 0 -83 13t-70.5 38t-48 61.5t-17.5 83.5zM793 190q0 -59 38.5 -94t104.5 -35q61 0 100 35t39 94v474q0 59 -39 94t-100 35 q-66 0 -104.5 -35t-38.5 -94v-474z" />
<glyph unicode="&#x26;" horiz-adv-x="1103" d="M121 330q0 135 69.5 246.5t200.5 211.5q-72 113 -112.5 193t-40.5 168q0 57 18 110.5t54 93.5t89 63.5t125 23.5q92 0 156.5 -24.5t118.5 -86.5l-68 -57q-43 47 -92 64.5t-113 17.5q-53 0 -90 -19.5t-61.5 -48.5t-35.5 -65.5t-11 -69.5q0 -47 17 -99.5t56 -117.5 q92 -156 204 -314.5t214 -308.5q35 66 50.5 138.5t21.5 138.5l86 -4q-10 -86 -34.5 -177.5t-68.5 -170.5q41 -59 83 -119t83 -117h-110q-29 41 -56.5 81t-56.5 81q-86 -100 -173 -137t-185 -37q-147 0 -242.5 88t-95.5 254zM209 336q0 -123 72.5 -195.5t189.5 -72.5 q78 0 157 41.5t138 119.5q-82 123 -163 244t-165 244q-111 -86 -170 -181.5t-59 -199.5z" />
<glyph unicode="'" horiz-adv-x="337" d="M133 1063v362h72v-362h-72z" />
<glyph unicode="(" horiz-adv-x="489" d="M123 614q0 117 20.5 235t58.5 227.5t91 208.5t117 183l43 -22q-55 -90 -99.5 -189.5t-75 -205t-47 -214t-16.5 -212.5q0 -229 65.5 -446.5t172.5 -391.5l-37 -27q-61 80 -114.5 177.5t-93.5 207t-62.5 228.5t-22.5 241z" />
<glyph unicode=")" horiz-adv-x="489" d="M82 -215q106 174 171.5 390t65.5 446q0 211 -63 426t-174 395q10 6 20.5 11t20.5 11q63 -84 116.5 -183t91.5 -209.5t59.5 -227.5t21.5 -236q0 -121 -22.5 -239.5t-62.5 -227t-93.5 -206t-112.5 -177.5z" />
<glyph unicode="*" horiz-adv-x="688" d="M59 1186l25 82l233 -99q0 6 -2 44t-4 83t-5 84t-3 43h84l-16 -254l237 99l25 -82l-242 -72l162 -199q-2 -2 -12.5 -10t-22.5 -16t-22.5 -16.5t-12.5 -10.5l-137 221q-4 -4 -24.5 -36.5t-44 -72.5t-44 -74t-22.5 -38l-70 51l158 201q-6 0 -42 11.5t-79 23.5t-79 23.5 t-40 13.5z" />
<glyph unicode="+" d="M43 549v76h340v356h72v-356h340v-76h-340v-361h-72v361h-340z" />
<glyph unicode="," horiz-adv-x="317" d="M84 -199l47 199h-31v121h117v-117l-76 -203h-57z" />
<glyph unicode="-" horiz-adv-x="708" d="M106 510v82h508v-82h-508z" />
<glyph unicode="." horiz-adv-x="309" d="M100 0v125h115v-125h-115z" />
<glyph unicode="/" horiz-adv-x="817" d="M59 -68l566 1545h77l-567 -1545h-76z" />
<glyph unicode="0" d="M98 301v821q0 76 27 135.5t71 98.5t102 59.5t122 20.5q63 0 121.5 -20.5t102.5 -59.5t70.5 -98.5t26.5 -135.5v-821q0 -78 -26.5 -136.5t-70.5 -97t-102.5 -59t-121.5 -20.5t-121.5 20.5t-102.5 59t-71 97t-27 136.5zM186 307q0 -109 64.5 -173t169.5 -64 q104 0 168.5 64.5t64.5 172.5v811q0 109 -64.5 172.5t-168.5 63.5t-169 -63.5t-65 -172.5v-811z" />
<glyph unicode="1" d="M223 1180v100l211 145h90v-1425h-88v1327z" />
<glyph unicode="2" d="M94 0v86l496 784q33 51 54.5 116t21.5 124q0 47 -13.5 90t-42 77t-74 54.5t-108.5 20.5q-88 0 -150.5 -56.5t-84.5 -162.5l-91 16q25 129 110 207t220 78q160 0 245 -89.5t85 -230.5q0 -82 -28.5 -153.5t-71.5 -143.5l-465 -733h538v-84h-641z" />
<glyph unicode="3" d="M98 244l86 22q16 -84 65.5 -140t156.5 -56q72 0 118.5 22.5t75.5 63.5t41 99t12 130q0 166 -50 241.5t-175 75.5h-72v80h58q117 0 174 63.5t57 209.5q0 61 -11 116.5t-38 95.5t-73 63.5t-113 23.5q-53 0 -91 -17.5t-64 -45t-40 -63.5t-22 -73l-89 19q23 115 96.5 188.5 t211.5 73.5q94 0 156.5 -30t99.5 -80t52 -118.5t15 -148.5q0 -41 -6 -89t-25.5 -92t-54.5 -79t-90 -54q66 -14 102.5 -52t55 -87t22.5 -105.5t4 -107.5q0 -86 -16 -159.5t-55 -129t-104.5 -86t-166.5 -30.5q-51 0 -100 13t-91 44t-71.5 80t-40.5 119z" />
<glyph unicode="4" d="M53 238v88l406 1099h94l-408 -1103h443v419h88v-419h119v-84h-119v-236h-88v236h-535z" />
<glyph unicode="5" d="M106 248l87 20q16 -86 67 -143t160 -57q76 0 123 26.5t72.5 77.5t33.5 125t8 168q0 193 -48 287t-185 94q-61 0 -123.5 -32t-91.5 -83h-82v694h602v-82h-520l2 -509q49 49 110.5 70.5t120.5 21.5q90 0 148.5 -31t93.5 -89t48 -143t13 -194q0 -119 -15 -209t-52 -150.5 t-100.5 -91t-161.5 -30.5q-260 0 -310 260z" />
<glyph unicode="6" d="M104 371q0 61 4.5 109t12.5 87t19.5 72t25.5 63l317 723h95q-76 -172 -150 -338.5t-149 -334.5h2q71 45 161 45q305 0 306 -402q0 -199 -85 -303t-239 -104q-156 0 -238 93t-82 290zM190 381q0 -156 55.5 -234.5t178.5 -78.5q236 0 235 321q0 156 -54 243t-179 87 q-66 0 -111 -24.5t-72.5 -69.5t-40 -107.5t-12.5 -136.5z" />
<glyph unicode="7" d="M96 1141v284h656v-82l-453 -1343h-92l452 1343h-481v-202h-82z" />
<glyph unicode="8" d="M92 387q0 160 52.5 242t129.5 110q-82 37 -126 113t-44 217q0 98 25 168t69 114t102 65.5t126 21.5t127 -20.5t102 -65.5t68 -116t25 -169q0 -139 -47.5 -216t-122.5 -112q80 -31 130 -110.5t50 -245.5q0 -106 -25.5 -181t-71 -123t-105.5 -69.5t-130 -21.5t-130 20.5 t-105.5 67.5t-72 123.5t-26.5 187.5zM180 391q0 -172 66.5 -247.5t179.5 -75.5q244 0 244 321q0 86 -18.5 146.5t-50.5 97.5t-77 53t-98 16t-98 -17t-78 -54t-51.5 -96.5t-18.5 -143.5zM190 1063q0 -147 63.5 -216t172.5 -69q106 0 169.5 70t63.5 217q0 291 -233 291 q-115 0 -175.5 -73t-60.5 -220z" />
<glyph unicode="9" d="M104 1028q0 12 1 24.5t4 22.5q8 180 94 271.5t227 91.5q156 0 238 -94.5t82 -290.5q0 -123 -17.5 -196t-46.5 -136q-31 -72 -74 -168t-87 -197.5t-86 -195.5t-70 -160h-95l299 672h-2q-71 -45 -161 -45q-150 0 -228 101t-78 300zM193 1036q0 -162 54 -246.5t183 -84.5 q125 0 178.5 90t53.5 245q0 156 -55.5 236t-178.5 80q-117 0 -176 -81t-59 -239z" />
<glyph unicode=":" horiz-adv-x="317" d="M100 0v125h115v-125h-115zM100 635v125h115v-125h-115z" />
<glyph unicode=";" horiz-adv-x="317" d="M84 -199l47 199h-31v121h117v-117l-76 -203h-57zM100 635v123h117v-123h-117z" />
<glyph unicode="&#x3c;" d="M49 551v72l735 366v-80l-653 -323q20 -8 71.5 -33t117 -56.5t138 -68.5t139.5 -69.5t117 -58.5t72 -34v-82z" />
<glyph unicode="=" d="M43 371v75h752v-75h-752zM43 700v74h752v-74h-752z" />
<glyph unicode="&#x3e;" d="M51 184v82q20 8 71.5 34t117 58.5t138.5 69.5t138.5 68.5t116.5 56.5t72 33l-654 323v80l737 -366v-72z" />
<glyph unicode="?" horiz-adv-x="806" d="M66 1128q27 152 122 230t224 78q88 0 151.5 -27t105.5 -75t61.5 -112.5t19.5 -138.5q0 -59 -12.5 -106t-32 -85t-44 -71t-47.5 -63q-23 -29 -47 -60.5t-45.5 -66.5t-36 -75t-16.5 -87v-141h-90v139q0 111 67 207q35 51 72 96t67.5 92t51 98.5t20.5 116.5q0 53 -13 103.5 t-42 88.5t-78 60.5t-118 22.5q-53 0 -96.5 -19.5t-76 -53.5t-53 -77t-26.5 -90zM373 0v113h106v-113h-106z" />
<glyph unicode="@" horiz-adv-x="1550" d="M92 686q0 164 49 303t140.5 239.5t222.5 157t297 56.5q150 0 271.5 -47t207.5 -132t133 -205t47 -267q0 -135 -27.5 -229.5t-73.5 -153t-105.5 -84t-123.5 -25.5q-14 0 -39.5 4t-53 16.5t-52 36t-35.5 62.5q-2 0 -2 -2q-18 -35 -48 -55.5t-62.5 -33t-65.5 -16.5t-59 -4 q-109 0 -171.5 57.5t-62.5 159.5q0 45 13.5 88t42 76t73.5 52.5t109 19.5h213v112q0 72 -38 113t-136 41q-51 0 -99.5 -20.5t-78.5 -61.5q-16 10 -27.5 18.5t-28.5 18.5q43 53 102.5 84t131.5 31q51 0 96 -10.5t79 -35t53.5 -67.5t19.5 -109v-364q0 -66 31.5 -103.5 t94.5 -37.5q53 0 100.5 23.5t81.5 73.5t53 130t19 195q0 141 -47 249.5t-125.5 182t-183 111.5t-219.5 38q-154 0 -272.5 -52t-200.5 -143.5t-125 -217t-43 -273.5q0 -160 45 -288t129 -219t205 -139t272 -48q106 0 200.5 18.5t176.5 61.5l29 -68q-92 -35 -190.5 -58.5 t-205.5 -23.5q-166 0 -302 50.5t-232 147.5t-149.5 239.5t-53.5 326.5zM553 526q0 -78 50 -114.5t128 -36.5q37 0 72 9t63.5 27.5t46 48t17.5 70.5v166h-197q-78 0 -129 -39t-51 -131z" />
<glyph unicode="A" horiz-adv-x="985" d="M25 0l415 1425h103l418 -1425h-97q-8 31 -21.5 80t-28.5 100t-29.5 100.5t-22.5 79.5h-541l-102 -360h-94zM242 444h497l-149 512l-96 349h-7q-115 -412 -245 -861z" />
<glyph unicode="B" horiz-adv-x="1017" d="M135 0v1425h406q190 0 280 -98t90 -260q0 -49 -9 -96t-30.5 -90t-60.5 -78t-96 -58v-2q61 -16 104 -51t68.5 -82t38 -102.5t12.5 -110.5q0 -100 -27.5 -175t-77 -124t-117 -73.5t-147.5 -24.5h-434zM225 88h324q82 0 138 24.5t91 67.5t50.5 100.5t15.5 122.5 q0 131 -68.5 214t-212.5 83h-338v-612zM225 782h320q139 0 207.5 76t68.5 207q0 127 -71.5 202.5t-223.5 75.5h-301v-561z" />
<glyph unicode="C" horiz-adv-x="935" d="M102 393v641q0 88 29 163t81 127t127 82t167 30q137 0 240.5 -69t136.5 -202l-88 -30q-23 104 -100 159.5t-189 55.5q-147 0 -230 -89.5t-83 -226.5v-647q0 -68 21.5 -126t62 -101t99 -66.5t130.5 -23.5q111 0 188.5 57t104.5 170l86 -27q-14 -72 -50 -125t-86.5 -87.5 t-113 -53t-129.5 -18.5q-92 0 -167 29.5t-127 83t-81 128t-29 166.5z" />
<glyph unicode="D" horiz-adv-x="1036" d="M133 0v1425h397q147 0 237.5 -56t133.5 -167q25 -72 29 -196.5t4 -280.5v-154q0 -111 -4 -195.5t-27 -144.5q-27 -68 -67.5 -112.5t-94 -71.5t-117 -37t-132.5 -10h-359zM225 84h281q231 0 303 170q16 37 24.5 91t8.5 101v478q0 70 -5.5 124t-21.5 111q-25 84 -103.5 133 t-205.5 49h-281v-1257z" />
<glyph unicode="E" horiz-adv-x="905" d="M135 0v1425h723v-86h-633v-571h547v-82h-547v-598h633v-88h-723z" />
<glyph unicode="F" horiz-adv-x="880" d="M135 0v1425h723v-86h-629v-573h543v-82h-543v-684h-94z" />
<glyph unicode="G" horiz-adv-x="1003" d="M100 393v641q0 88 29 163t82 128t127 83t166 30q139 0 243.5 -70t135.5 -205l-88 -26q-23 104 -101 159.5t-188 55.5q-74 0 -131.5 -23.5t-98 -66.5t-62 -101.5t-21.5 -126.5v-649q0 -68 21.5 -125t62 -100t99 -66.5t130.5 -23.5q70 0 127 24.5t98 66.5t64.5 99t23.5 123 v262h-250v84h342v-334q0 -90 -29.5 -165.5t-84 -130t-129 -84t-164.5 -29.5q-92 0 -167 29.5t-127 83t-81 128t-29 166.5z" />
<glyph unicode="H" horiz-adv-x="1062" d="M135 0v1425h90v-657h611v657h94v-1425h-94v684h-611v-684h-90z" />
<glyph unicode="I" horiz-adv-x="397" d="M152 0v1425h92v-1425h-92z" />
<glyph unicode="J" horiz-adv-x="788" d="M25 76l61 67q83 -69 179 -69h3q57 0 109.5 13t91.5 47t61.5 90.5t22.5 140.5v1060h94v-1079q0 -92 -28.5 -158.5t-79 -111.5t-119 -66.5t-148.5 -21.5q-63 0 -131.5 21.5t-115.5 66.5z" />
<glyph unicode="K" horiz-adv-x="1026" d="M131 0v1425h92v-893h2q150 225 299.5 446.5t298.5 446.5h103l-369 -551l436 -874h-100l-393 793l-277 -406v-387h-92z" />
<glyph unicode="L" horiz-adv-x="882" d="M135 0v1425h90v-1337h621v-88h-711z" />
<glyph unicode="M" horiz-adv-x="1304" d="M131 0v1425h94q57 -135 114.5 -269t117.5 -269l196 -467h4l201 469l232 536h90v-1425h-90v1208h-3l-215 -508l-182 -421h-72l-182 421l-209 500h-6v-1200h-90z" />
<glyph unicode="N" horiz-adv-x="1120" d="M133 0v1425h90l412 -747l258 -473h6v1220h90v-1425h-92q-102 188 -204.5 375.5t-207.5 378.5q-66 117 -129 234.5t-129 236.5h-2v-1225h-92z" />
<glyph unicode="O" horiz-adv-x="993" d="M90 403v633q0 82 26.5 156t79 127t128 85t174.5 32q92 0 165.5 -30t126 -83t81 -127t28.5 -160v-641q0 -88 -28.5 -162.5t-81 -130t-127 -86t-164.5 -30.5q-98 0 -174 31.5t-128.5 87t-79 132t-26.5 166.5zM182 399q0 -145 83 -236t233 -91q70 0 126 25.5t97 68.5 t63.5 101.5t22.5 123.5v641q0 63 -20.5 120.5t-60.5 101.5t-97.5 70t-130.5 26q-76 0 -135.5 -26t-99.5 -69t-60.5 -100t-20.5 -123v-633z" />
<glyph unicode="P" horiz-adv-x="964" d="M135 0v1425h393q195 0 298.5 -101t103.5 -306q0 -82 -21.5 -156t-68.5 -130t-122 -90t-181 -34h-310v-608h-92zM227 694h299q86 0 145.5 24.5t96.5 68.5t53.5 103.5t16.5 129.5q0 154 -78 237.5t-236 83.5h-297v-647z" />
<glyph unicode="Q" horiz-adv-x="1009" d="M96 403v633q0 82 27 156t79 127t128 85t174 32q92 0 166.5 -30t127 -83t81 -127t28.5 -160v-641q0 -70 -15 -127t-42 -104l160 -125l-49 -64q-8 6 -30 23.5t-47.5 37t-49 38t-35.5 28.5q-53 -57 -129 -86.5t-166 -29.5q-98 0 -174 31.5t-128 87t-79 132t-27 166.5z M188 1032l2 -633q0 -145 83 -236t233 -91q137 0 219 88l-174 137l53 61l170 -135q39 74 39 168v641q0 63 -20.5 120.5t-60.5 101.5t-97 70t-131 26q-76 0 -135.5 -26t-99.5 -69t-60.5 -100t-20.5 -123z" />
<glyph unicode="R" horiz-adv-x="1005" d="M135 0v1425h412q193 0 288 -99t95 -275q0 -147 -71 -248t-212 -133q70 -162 143.5 -335t145.5 -335h-107q-70 166 -138 330t-136 329q-29 -2 -58.5 -2h-60.5h-209v-657h-92zM227 737h299q147 0 228.5 77t81.5 235q0 147 -80 219.5t-228 72.5h-301v-604z" />
<glyph unicode="S" horiz-adv-x="948" d="M61 213l80 47q45 -78 126 -132t206 -54q156 0 231.5 82t75.5 215q0 76 -21.5 127t-60.5 85.5t-95 58.5t-126 46q-100 31 -173 63.5t-120 75.5t-69.5 100.5t-22.5 137.5q0 82 25.5 150.5t75 117.5t121 77t163.5 28q154 0 237 -46t136 -128l-82 -56q-41 70 -110.5 107 t-182.5 37q-139 0 -214 -82t-75 -205q0 -66 23.5 -111t65.5 -77.5t102.5 -57t134.5 -49.5q92 -29 160.5 -61.5t115 -76.5t69 -107.5t22.5 -153.5q0 -176 -102.5 -279.5t-305.5 -103.5q-158 0 -257 60.5t-153 164.5z" />
<glyph unicode="T" horiz-adv-x="817" d="M12 1341v84h791v-84h-348v-1341h-90v1341h-353z" />
<glyph unicode="U" horiz-adv-x="1024" d="M109 385v1040h90v-1034q0 -72 24.5 -130t66.5 -99t99 -64.5t123 -23.5q63 0 120.5 20.5t99.5 60.5t66.5 97t24.5 133v1040h92v-1046q0 -94 -31.5 -167t-87 -123t-129 -75.5t-155.5 -25.5q-84 0 -157.5 26.5t-128 77.5t-86 125t-31.5 168z" />
<glyph unicode="V" horiz-adv-x="927" d="M25 1425h94l268 -1013l72 -277h2q16 72 33.5 139.5t33.5 137.5l275 1013h94q-98 -358 -194.5 -712.5t-194.5 -712.5h-96z" />
<glyph unicode="W" horiz-adv-x="1423" d="M33 1425h92q10 -55 30.5 -154.5t45 -220t50 -253.5t50.5 -255t44.5 -223.5t29.5 -160.5h6q31 139 60.5 266t64.5 276l168 725h80l196 -856l97 -411h4l79 411q12 59 28 134t31 157t30.5 165t30 159t26.5 138t22 103h95l-295 -1425h-97l-198 856q-23 96 -45.5 190.5 t-44.5 190.5h-4q-23 -96 -44.5 -190.5t-43.5 -190.5l-197 -856h-96q-74 358 -146.5 712.5t-148.5 712.5z" />
<glyph unicode="X" horiz-adv-x="868" d="M18 0l367 729l-348 694h100l297 -606l295 606h100l-348 -694l369 -729h-102l-314 637l-315 -637h-101z" />
<glyph unicode="Y" horiz-adv-x="845" d="M14 1425h97l184 -432l127 -295l123 297q10 25 36.5 85.5t55.5 129t55.5 130t36.5 85.5h94l-360 -831v-594h-88v594z" />
<glyph unicode="Z" horiz-adv-x="811" d="M47 0v84l619 1257h-584v84h680v-82l-617 -1257h607v-86h-705z" />
<glyph unicode="[" horiz-adv-x="442" d="M141 -221v1648h262v-65h-180v-1518h180v-65h-262z" />
<glyph unicode="\" horiz-adv-x="520" d="M4 1477h74l428 -1551h-74z" />
<glyph unicode="]" horiz-adv-x="442" d="M76 -156h178v1518h-178v65h260v-1650h-260v67z" />
<glyph unicode="^" d="M55 725l330 694h72l329 -692h-79l-287 608q-8 -18 -29.5 -65t-50.5 -108.5t-61.5 -130t-61.5 -130t-50.5 -110t-29.5 -66.5h-82z" />
<glyph unicode="_" horiz-adv-x="1017" d="M0 -156h1018v-75h-1018v75z" />
<glyph unicode="`" horiz-adv-x="843" d="M360 1444l99 37l147 -312l-53 -22z" />
<glyph unicode="a" horiz-adv-x="837" d="M63 270q0 61 18.5 117.5t57.5 97.5t99.5 65.5t144.5 24.5h268v156q0 96 -55 151.5t-172 55.5q-80 0 -142.5 -26.5t-99.5 -77.5q-10 6 -34.5 23t-34.5 24q49 66 122.5 103.5t188.5 37.5q68 0 126 -13.5t100 -47t66.5 -90t24.5 -142.5v-729h-90v96h-6q-47 -68 -125 -89 t-158 -21q-141 0 -220 77.5t-79 206.5zM150 276q0 -92 60 -150t177 -58q47 0 94 10t85 34.5t61.5 63.5t23.5 96v224h-264q-102 0 -169.5 -52.5t-67.5 -167.5z" />
<glyph unicode="b" horiz-adv-x="833" d="M86 0v1481h90v-629h4q33 63 96.5 114.5t172.5 51.5t172 -43t95 -113.5t41 -162t9 -189.5q0 -100 -10.5 -194.5t-44 -167t-97 -116.5t-172.5 -44q-78 0 -146.5 30.5t-115.5 118.5q-2 0 -2 -1t-2 -1v-135h-90zM174 508q0 -68 5 -145.5t29.5 -143t75 -108.5t140.5 -43 q80 0 130 32.5t76.5 91t36 136.5t9.5 170q0 84 -6 162.5t-31 139t-75 97.5t-138 37q-84 0 -133 -42t-76 -105.5t-35 -138.5t-8 -140z" />
<glyph unicode="c" horiz-adv-x="761" d="M70 510q0 102 15 194.5t56 163t113 111.5t182 41q106 0 179 -45t108 -131q-20 -12 -38.5 -22.5t-39.5 -20.5q-23 61 -77 99t-132 38q-92 0 -146 -37t-84 -97.5t-39 -137t-9 -156.5q0 -78 9 -157t37.5 -142.5t83 -103t144.5 -39.5q78 0 132 36.5t77 96.5 q18 -10 37.5 -19.5t40.5 -19.5q-35 -86 -111 -130t-180 -44q-115 0 -185.5 41t-108.5 112.5t-51 165.5t-13 203z" />
<glyph unicode="d" horiz-adv-x="833" d="M63 498q0 98 10.5 192t45.5 167t101.5 118t176.5 45q92 0 151.5 -39t100.5 -100h4v602h90v-1483h-90v137h-4q-47 -86 -115.5 -118.5t-146.5 -32.5q-109 0 -172 43t-97 113.5t-44.5 163.5t-10.5 192zM154 496q0 -88 9 -166t35.5 -136.5t77 -92t130.5 -33.5q90 0 140 44 t73.5 110.5t28.5 144t5 143.5q0 72 -7 146.5t-31.5 136t-72.5 101.5t-130 42q-88 0 -139.5 -39t-78 -101.5t-33.5 -141.5t-7 -158z" />
<glyph unicode="e" horiz-adv-x="835" d="M74 520q0 94 14 185.5t53 161t107.5 112.5t177.5 43q100 0 165.5 -35t104.5 -95.5t54.5 -139t15.5 -166.5v-94h-602q0 -100 12 -179.5t43 -134.5t84 -83.5t135 -28.5q74 0 135.5 38.5t83.5 98.5l78 -37q-35 -86 -114.5 -133t-178.5 -47q-113 0 -184.5 35.5t-112.5 104.5 t-56 168t-15 226zM166 565h508v6q0 74 -9.5 139.5t-37 117t-75.5 81t-126 29.5t-127 -30.5t-79 -82t-41 -119t-13 -141.5z" />
<glyph unicode="f" horiz-adv-x="464" d="M45 936v74h117v239q0 123 53 179.5t156 56.5h86v-82h-82q-43 0 -67.5 -13.5t-37 -37t-15.5 -53t-3 -60.5v-229h201v-74h-201v-936h-90v936h-117z" />
<glyph unicode="g" horiz-adv-x="874" d="M82 496q0 98 9 192t43 169t97.5 120t174.5 45q78 0 146.5 -32t115.5 -120l4 2v136h90v-1047q0 -184 -88 -286.5t-264 -102.5q-92 0 -165 43t-110 129q10 6 38 19.5t38 21.5q27 -53 76 -92t125 -39q137 0 198.5 82t61.5 211v209h-4q-35 -66 -97.5 -117t-171.5 -51t-172 43 t-95 113.5t-41 161.5t-9 190zM172 508q0 -84 6 -162t30.5 -139.5t74 -98t137.5 -36.5q82 0 132 41t76.5 104.5t35 139t8.5 143.5t-5 145.5t-29 143t-74 108.5t-140 43q-82 0 -132 -34t-77 -92t-35 -137t-8 -169z" />
<glyph unicode="h" horiz-adv-x="886" d="M111 0v1485h88v-617h4q43 78 116.5 116t153.5 38q147 0 226 -85t79 -224v-713h-90v684q0 117 -55 183.5t-172 66.5q-57 0 -105.5 -20.5t-84 -57.5t-55 -87t-19.5 -107v-662h-86z" />
<glyph unicode="i" horiz-adv-x="362" d="M133 1286v100h96v-100h-96zM137 0v1010h88v-1010h-88z" />
<glyph unicode="j" horiz-adv-x="376" d="M-16 -340h45q70 2 94 49t24 121v1178h93v-1196q0 -102 -46.5 -166t-146.5 -64h-63v78zM145 1286v98h99v-98h-99z" />
<glyph unicode="k" horiz-adv-x="845" d="M117 0v1483h86v-1075h2l454 600h103l-281 -371l353 -637h-99l-311 565l-221 -293v-272h-86z" />
<glyph unicode="l" horiz-adv-x="397" d="M123 201v1282h88v-1260q0 -74 24.5 -111.5t96.5 -37.5h39v-80h-43q-47 0 -85 9t-64.5 31.5t-41 63.5t-14.5 103z" />
<glyph unicode="m" horiz-adv-x="1464" d="M119 0v1006h86v-138h4q43 78 112.5 114t147.5 36q111 0 181.5 -47t99.5 -125q47 82 119.5 127t168.5 45q147 0 225 -85t78 -222v-711h-90v664q0 127 -58 197.5t-175 70.5q-119 0 -182.5 -83t-63.5 -206v-643h-88v664q0 125 -58.5 196.5t-176.5 71.5q-119 0 -181.5 -84 t-62.5 -207v-641h-86z" />
<glyph unicode="n" horiz-adv-x="880" d="M104 0v1010h91v-140h4q43 78 116.5 115t151.5 37q147 0 227 -85t80 -224v-713h-90v684q0 117 -54.5 183.5t-170.5 66.5q-57 0 -105.5 -20.5t-84.5 -57.5t-55 -87t-19 -107v-662h-91z" />
<glyph unicode="o" horiz-adv-x="858" d="M82 500q0 100 7 181t28 140q37 102 119.5 151.5t195.5 49.5q92 0 155.5 -32t104.5 -85q47 -55 64.5 -157.5t17.5 -245.5q0 -92 -8 -181.5t-31 -146.5q-39 -100 -119.5 -143t-193.5 -43q-86 0 -145.5 25.5t-98.5 72.5q-53 55 -74.5 158.5t-21.5 255.5zM170 492 q0 -141 18.5 -223.5t59.5 -127.5q58 -75 177 -75h3q74 0 136.5 36.5t90.5 112.5q19 51 25 128q4 56 5 120q0 23 -1 47q0 221 -39 299q-29 66 -85 98.5t-130 32.5q-72 0 -129 -30.5t-90 -92.5q-25 -47 -32 -129t-9 -196z" />
<glyph unicode="p" horiz-adv-x="862" d="M96 -416v1424h88v-136l4 -2q47 88 117 120t148 32q109 0 173 -43t97 -113.5t42 -164t9 -191.5t-10 -191.5t-46 -167t-101.5 -118.5t-176.5 -45q-92 0 -150.5 39t-101.5 102h-4v-545h-88zM184 500q0 -70 6.5 -144.5t31 -137t72.5 -103.5t132 -43q88 0 139 37.5t77 99 t33 140.5t7 159q0 88 -7 167t-34 137t-76 92t-133 34q-90 0 -140 -43t-73.5 -107.5t-29 -142.5t-5.5 -145z" />
<glyph unicode="q" horiz-adv-x="872" d="M78 496q0 98 10 192t44 168t98.5 119t172.5 45q86 0 150.5 -32t112.5 -118h4v138h90v-1424h-90v572h-4q-35 -66 -97.5 -116t-171.5 -50t-172 42t-96 112.5t-42 161.5t-9 190zM172 508q0 -80 5 -158t29.5 -140.5t74 -100t139.5 -37.5q82 0 132 42t76.5 105.5t35 138 t8.5 140.5q0 70 -5 147.5t-30 143t-75 108.5t-140 43q-80 0 -129 -34t-76 -93t-36 -138t-9 -167z" />
<glyph unicode="r" horiz-adv-x="587" d="M131 0v1010h86v-158h6q41 96 112 133t157 37q53 0 96 -12l-21 -97q-23 10 -46 13.5t-46 3.5q-117 0 -187.5 -78t-70.5 -217v-635h-86z" />
<glyph unicode="s" horiz-adv-x="800" d="M53 170l78 43q70 -147 268 -147q100 0 170 49t70 155q0 53 -17.5 87t-49 57.5t-75.5 38t-98 28.5q-72 18 -130 40t-100 52.5t-65.5 73.5t-23.5 105q0 125 84 197.5t233 72.5q240 0 310 -166l-76 -41q-31 66 -90.5 95.5t-145.5 29.5q-111 0 -167 -53t-56 -135 q0 -47 19.5 -77t55.5 -51.5t84 -36t103 -28.5q72 -16 127 -37.5t93 -55.5t57.5 -81t19.5 -117q0 -61 -20.5 -112.5t-62.5 -89t-106.5 -59t-150.5 -21.5q-123 0 -207 43t-131 141z" />
<glyph unicode="t" horiz-adv-x="487" d="M39 934v74h127v276h90v-276h170v-74h-170v-692q0 -74 24.5 -119t108.5 -45h55v-78h-75q-102 0 -152.5 56.5t-50.5 164.5v713h-127z" />
<glyph unicode="u" horiz-adv-x="897" d="M111 295v715h90v-684q0 -117 62.5 -185.5t176.5 -68.5q57 0 103.5 21.5t79 58t51 87t18.5 109.5v662h86v-1010h-86v139h-6q-43 -80 -116.5 -115.5t-151.5 -35.5q-147 0 -227 85t-80 222z" />
<glyph unicode="v" horiz-adv-x="761" d="M18 1008h97l155 -512l109 -363h6q10 37 24.5 85t29 97.5t27.5 96.5t26 84q18 55 37.5 121.5t39 134t39 134t35.5 122.5h98q-35 -104 -75.5 -236.5t-82.5 -268.5t-83 -267.5t-74 -235.5h-92q-35 104 -76 235.5t-82 267.5t-82 268t-76 237z" />
<glyph unicode="w" horiz-adv-x="1257" d="M18 1008h95q8 -35 26.5 -106t42 -158t48 -181t46 -179t39 -149.5t23.5 -91.5h6q23 80 44.5 159t43.5 157q4 14 16.5 57t28 98.5t32.5 119t33.5 118.5t28 97t15.5 59h90q39 -137 75.5 -272.5t73.5 -272.5q23 -80 45.5 -161t44.5 -161h5l86 320q35 137 69.5 273t71.5 274 h94l-276 -1008h-91l-151 528q-4 14 -17.5 60.5t-28.5 100.5t-29.5 100.5t-18.5 60.5h-2l-92 -332l-150 -518h-90z" />
<glyph unicode="x" horiz-adv-x="751" d="M35 0l287 518l-271 490h101l223 -426l225 426h102l-274 -492l289 -516h-101l-241 451l-240 -451h-100z" />
<glyph unicode="y" horiz-adv-x="749" d="M12 1006h97l139 -445l127 -426h4q6 25 26.5 91.5t48 155.5t57.5 188.5t57.5 187.5t47 155.5t27.5 92.5h94q-96 -311 -190 -617.5t-193 -615.5q-29 -98 -80 -145.5t-139 -47.5h-41v78h33q66 0 98.5 44t55.5 120l55 178q-84 252 -162 502t-162 504z" />
<glyph unicode="z" horiz-adv-x="718" d="M51 0v78l518 852h-483v78h584v-76l-516 -852h510v-80h-613z" />
<glyph unicode="{" horiz-adv-x="456" d="M57 573v58q45 12 72 43t41 74t19.5 92t5.5 96v240q0 109 36.5 179t126.5 70h76v-63h-51q-37 0 -58.5 -18.5t-32.5 -47t-14.5 -62.5t-3.5 -63v-274q0 -121 -39.5 -195.5t-82.5 -97.5v-2q59 -23 90.5 -103.5t31.5 -215.5v-254q0 -29 4.5 -60.5t15.5 -59.5t32.5 -46.5 t56.5 -18.5h51v-65h-76q-78 0 -121.5 57.5t-43.5 153.5v282q0 133 -25 206t-111 95z" />
<glyph unicode="|" horiz-adv-x="358" d="M150 -332v1798h73v-1798h-73z" />
<glyph unicode="}" horiz-adv-x="456" d="M51 -156h51q35 0 56.5 18.5t33 46.5t15.5 59.5t4 60.5v295q0 119 34 189.5t87 90.5v2q-45 23 -83 96.5t-38 194.5v274q0 29 -4 63t-15.5 62.5t-33 47t-56.5 18.5h-51v61h58q86 0 133 -54t47 -155v-278q0 -49 4 -98.5t19.5 -91t42 -72.5t73.5 -43v-58q-88 -23 -112.5 -95 t-24.5 -206v-282q0 -104 -51.5 -157.5t-130.5 -53.5h-58v65z" />
<glyph unicode="~" d="M61 496q39 55 91.5 86.5t111.5 31.5q43 0 86 -15t84 -33.5t79 -34t73 -15.5q41 0 69.5 20.5t65.5 67.5l59 -43q-39 -63 -86 -95t-110 -32q-37 0 -77 15.5t-82 34t-83 33.5t-80 15q-43 0 -75.5 -19t-67.5 -60z" />
<glyph unicode="&#xa1;" horiz-adv-x="421" d="M160 1026v113h104v-113h-104zM164 -285q0 57 1 143.5t2 184.5t2 204.5t2 205t2 183.5t3 144h68q0 -59 2 -144t2 -183.5t2 -205t2 -204.5t1 -184t3 -144h-92z" />
<glyph unicode="&#xa2;" d="M90 510q0 94 13.5 182t49 157t96 113t154.5 54v201h64v-197q102 -2 172 -47t104 -129q-18 -12 -37.5 -22.5t-37.5 -20.5q-23 59 -76 96t-125 41v-870q72 4 122 39.5t73 93.5q20 -10 39.5 -19.5t39.5 -19.5q-35 -82 -105.5 -126t-168.5 -48v-213h-64v215q-98 8 -159.5 52 t-95 113.5t-46 161t-12.5 193.5zM180 510q0 -74 7.5 -146.5t31 -134t67.5 -103.5t117 -54v862q-74 -12 -117.5 -52t-67 -98.5t-31 -130t-7.5 -143.5z" />
<glyph unicode="&#xa3;" d="M57 641v72h142q-10 55 -25.5 107t-31 102.5t-27 98.5t-11.5 93q0 68 20.5 126t61.5 101t101.5 69t140.5 26q125 0 216 -57.5t126 -186.5q-45 -20 -82 -31q-35 104 -101.5 148.5t-158.5 44.5q-43 0 -85 -14.5t-73.5 -44t-51 -74.5t-19.5 -107q0 -47 10 -91t25.5 -92 t31 -101.5t25.5 -116.5h264v-72h-258q2 -20 2 -39.5v-40.5q-4 -139 -37 -253.5t-98 -225.5h602v-82h-705v78q72 111 112 233.5t40 274.5q0 14 -1 27.5t-3 27.5h-152z" />
<glyph unicode="&#xa5;" d="M33 1425h90q6 -18 28.5 -73.5t53.5 -131t65.5 -159.5t65.5 -159t53.5 -131t28.5 -73h4q6 16 28.5 72.5t52 131.5t64.5 159t65 159.5t52.5 131t28.5 73.5h94l-307 -749h264v-64h-287l-14 -55v-106h301v-66h-301v-385h-86v385h-291v66h291v104q-2 12 -5 28.5t-7 28.5h-279 v64h254z" />
<glyph unicode="&#xa7;" horiz-adv-x="880" d="M102 715q0 72 39 132t103 105q-102 84 -103 203q0 125 83 204t220 79q170 0 291 -101l-55 -65q-57 47 -113.5 67.5t-124.5 20.5q-100 0 -156.5 -57.5t-56.5 -139.5q0 -39 14.5 -68.5t42 -54t66.5 -48t88 -50.5q61 -33 125 -63.5t114 -70.5t83 -93t33 -131 q0 -68 -35 -130.5t-98 -111.5q92 -98 92 -209q0 -129 -93.5 -210t-254.5 -81q-80 0 -161 31t-139 80l54 57q57 -47 118.5 -68.5t127.5 -21.5q117 0 189.5 52.5t72.5 156.5q0 90 -73 153.5t-204 123.5q-74 33 -129 65.5t-90 68t-52.5 77.5t-17.5 98zM186 719q0 -49 23.5 -86 t60.5 -64.5t80 -50t82 -41.5q43 -20 86 -40.5t78 -41.5q51 31 83 81t32 104v2q0 61 -30 103t-82 76t-125 66.5t-159 77.5q-53 -29 -91 -77t-38 -109z" />
<glyph unicode="&#xa8;" horiz-adv-x="843" d="M203 1223v104h100v-104h-100zM547 1223v104h98v-104h-98z" />
<glyph unicode="&#xa9;" horiz-adv-x="1519" d="M111 698q0 154 47 286t133 229.5t208 151.5t271 54q150 0 271.5 -54t207.5 -151.5t133.5 -229.5t47.5 -286t-47.5 -284.5t-133.5 -227t-207.5 -150.5t-271.5 -54q-152 0 -273.5 54t-207.5 150.5t-132 227.5t-46 284zM186 698q0 -137 42 -255.5t119 -205.5t184.5 -137.5 t238.5 -50.5t239.5 50.5t184.5 137.5t118 205.5t42 255.5t-42 257t-119 207t-184.5 137.5t-238.5 50.5q-135 0 -242.5 -51.5t-183.5 -139.5t-117 -206.5t-41 -254.5zM514 522v334q0 113 69.5 186.5t188.5 73.5q88 0 154.5 -46t87.5 -134l-70 -25q-14 59 -59 97.5t-113 38.5 q-90 0 -137 -55.5t-47 -131.5v-342q0 -78 47 -133t137 -55q66 0 111 36.5t59 100.5l74 -25q-20 -86 -88 -134t-156 -48q-121 0 -189.5 73t-68.5 189z" />
<glyph unicode="&#xaa;" horiz-adv-x="577" d="M37 754q0 82 50 141t165 59h188v90q0 59 -32.5 94.5t-122.5 35.5q-47 0 -87 -18.5t-69 -55.5l-63 39q35 49 89 76.5t132 27.5q51 0 93 -9t72.5 -31.5t48 -60.5t17.5 -95v-478h-78v66q-35 -41 -86 -57.5t-104 -16.5q-102 0 -157.5 53.5t-55.5 139.5zM113 754 q0 -55 38.5 -90t114.5 -35q31 0 61.5 7t56.5 23.5t41 41t15 59.5v129h-172q-70 0 -112.5 -31.5t-42.5 -103.5z" />
<glyph unicode="&#xab;" horiz-adv-x="763" d="M102 461l230 366h90l-225 -366l225 -367h-90zM367 461l229 366h90l-225 -366l225 -367h-92z" />
<glyph unicode="&#xac;" d="M43 549v76h752l-2 -437h-74v361h-676z" />
<glyph unicode="&#xad;" horiz-adv-x="708" d="M106 510v82h508v-82h-508z" />
<glyph unicode="&#xae;" horiz-adv-x="1056" d="M129 1006q0 94 28.5 175t82 139t127 92t165.5 34q90 0 164 -34t126 -92t81 -139t29 -175t-29 -174t-82 -138.5t-127 -91.5t-162 -33q-90 0 -164.5 33t-128 91.5t-82 138t-28.5 174.5zM186 1008q0 -84 25 -155t70 -123t109.5 -80.5t141.5 -28.5q80 0 143.5 29.5 t107.5 81.5t67.5 123t23.5 153t-24.5 152.5t-68.5 122.5t-107.5 83t-141.5 31q-80 0 -144 -31t-108 -83t-69 -122.5t-25 -152.5zM391 745v519h154q72 0 114.5 -36t42.5 -110q0 -47 -24.5 -86t-71.5 -55q27 -55 52.5 -114.5t50.5 -117.5h-64l-98 228h-98v-228h-58zM449 1020 h96q12 0 20 2q78 10 78 96q0 53 -32.5 72.5t-86.5 19.5h-75v-190z" />
<glyph unicode="&#xaf;" horiz-adv-x="837" d="M211 1206v84h467v-84h-467z" />
<glyph unicode="&#xb0;" horiz-adv-x="659" d="M115 1208q0 45 17.5 86t47 70t69.5 46t85 17q47 0 87 -17t69.5 -46t47 -70t17.5 -86q0 -47 -17.5 -87t-47 -69.5t-69.5 -47t-87 -17.5q-45 0 -85 17.5t-69.5 47t-47 69.5t-17.5 87zM180 1208q0 -66 45 -111.5t109 -45.5q66 0 110.5 43.5t44.5 113.5q0 66 -45 112t-110 46 q-63 0 -108.5 -46t-45.5 -112z" />
<glyph unicode="&#xb1;" d="M47 41v76h748v-76h-748zM47 559v76h336v352h74v-352h338v-76h-338v-354h-74v354h-336z" />
<glyph unicode="&#xb4;" horiz-adv-x="843" d="M360 1169l150 312l96 -37l-192 -297z" />
<glyph unicode="&#xb6;" horiz-adv-x="923" d="M63 1106q0 70 16.5 137.5t57.5 120.5t108.5 86t170.5 33h444v-86h-108v-1563h-88v1563h-168v-1563h-86v901q-80 2 -144.5 30t-108.5 77t-69 116.5t-25 147.5z" />
<glyph unicode="&#xb7;" horiz-adv-x="317" d="M102 479v125h115v-125h-115z" />
<glyph unicode="&#xb8;" horiz-adv-x="864" d="M272 -377l21 51q35 -14 68.5 -19t60.5 -5q41 0 73.5 20.5t32.5 69.5q0 41 -28.5 67.5t-77.5 26.5h-11.5t-17.5 -2l-37 29l50 162q14 0 28.5 -1.5t28.5 -1.5l-39 -129q51 -2 86 -18t55.5 -38.5t28.5 -48.5t8 -46q0 -25 -9 -50.5t-30.5 -47t-54.5 -35t-78 -13.5 q-25 0 -68 4.5t-90 24.5z" />
<glyph unicode="&#xba;" horiz-adv-x="591" d="M49 899q0 80 11.5 141.5t43.5 106.5q33 43 78 69.5t117 26.5q80 0 130 -31.5t77 -78.5q20 -35 27.5 -92.5t7.5 -139.5q0 -66 -6.5 -112t-18.5 -87q-23 -72 -83 -107.5t-138 -35.5q-76 0 -123 25.5t-74 66.5q-29 47 -39 111.5t-10 136.5zM125 895q0 -86 11 -132t30 -73 q39 -61 129 -61q104 0 145 80q27 53 27 194q0 74 -8 119t-19 68q-37 84 -143 84q-41 0 -75 -15.5t-56 -48.5q-41 -57 -41 -215z" />
<glyph unicode="&#xbb;" horiz-adv-x="763" d="M102 94l226 367l-226 366h91l231 -366l-229 -367h-93zM369 94l225 367l-225 366h90l229 -366l-229 -367h-90z" />
<glyph unicode="&#xbf;" horiz-adv-x="806" d="M121 -96q0 68 20.5 125t52 108t67.5 98.5t67.5 94.5t52 95t20.5 103v144h91v-140q0 -90 -44.5 -166.5t-96.5 -150.5t-96 -147.5t-44 -153.5q0 -45 11 -92t41 -85t79 -61.5t123 -23.5q53 0 98 20.5t79 55t53.5 80t23.5 94.5q23 -4 45 -7.5t45 -7.5q-12 -78 -43 -137 t-77 -100t-105 -62.5t-125 -21.5q-84 0 -147.5 25.5t-105.5 70.5t-63.5 107.5t-21.5 134.5zM393 887v112h107v-112h-107z" />
<glyph unicode="&#xc0;" horiz-adv-x="985" d="M25 0l415 1425h103l418 -1425h-97q-8 31 -21.5 80t-28.5 100t-29.5 100.5t-22.5 79.5h-541l-102 -360h-94zM184 1688l72 77l272 -221l-41 -47zM242 444h497l-149 512l-96 349h-7q-115 -412 -245 -861z" />
<glyph unicode="&#xc1;" horiz-adv-x="985" d="M25 0l415 1425h103l418 -1425h-97q-8 31 -21.5 80t-28.5 100t-29.5 100.5t-22.5 79.5h-541l-102 -360h-94zM242 444h497l-149 512l-96 349h-7q-115 -412 -245 -861zM428 1534l268 219l72 -76l-301 -186z" />
<glyph unicode="&#xc2;" horiz-adv-x="985" d="M25 0l415 1425h103l418 -1425h-97q-8 31 -21.5 80t-28.5 100t-29.5 100.5t-22.5 79.5h-541l-102 -360h-94zM209 1538l252 215h69l242 -213l-37 -41l-243 164l-246 -164zM242 444h497l-149 512l-96 349h-7q-115 -412 -245 -861z" />
<glyph unicode="&#xc3;" horiz-adv-x="985" d="M25 0l415 1425h103l418 -1425h-97q-8 31 -21.5 80t-28.5 100t-29.5 100.5t-22.5 79.5h-541l-102 -360h-94zM201 1593q33 57 77 90t91 33q31 0 62.5 -13t62 -28.5t61.5 -28t59 -12.5q57 0 109 82l55 -33q-33 -68 -74.5 -98.5t-89.5 -30.5q-31 0 -62.5 12.5t-62 28 t-61.5 28.5t-59 13q-31 0 -58.5 -20.5t-56.5 -54.5zM242 444h497l-149 512l-96 349h-7q-115 -412 -245 -861z" />
<glyph unicode="&#xc4;" horiz-adv-x="985" d="M25 0l415 1425h103l418 -1425h-97q-8 31 -21.5 80t-28.5 100t-29.5 100.5t-22.5 79.5h-541l-102 -360h-94zM242 444h497l-149 512l-96 349h-7q-115 -412 -245 -861zM270 1530v104h101v-104h-101zM604 1530v104h98v-104h-98z" />
<glyph unicode="&#xc5;" horiz-adv-x="985" d="M25 0l415 1425h103l418 -1425h-97q-8 31 -21.5 80t-28.5 100t-29.5 100.5t-22.5 79.5h-541l-102 -360h-94zM242 444h497l-149 512l-96 349h-7q-115 -412 -245 -861zM313 1647q0 37 13.5 67.5t36 54t54.5 37t66 13.5q35 0 66 -13.5t53.5 -37t35.5 -54.5t13 -67 q0 -68 -49 -118t-119 -50q-72 0 -121 50t-49 118zM367 1647q0 -47 34.5 -80t81.5 -33t81 32.5t34 80.5q0 49 -34 82.5t-81 33.5t-81.5 -33.5t-34.5 -82.5z" />
<glyph unicode="&#xc6;" horiz-adv-x="1581" d="M6 0q186 358 372.5 712.5t375.5 712.5h772v-86h-631v-571h545v-82h-545v-600h631v-86h-723v383h-496l-203 -383h-98zM350 467h453v868h-2z" />
<glyph unicode="&#xc7;" horiz-adv-x="935" d="M102 393v641q0 88 29 163t81 127t127 82t167 30q137 0 240.5 -69t136.5 -202l-88 -30q-23 104 -100 159.5t-189 55.5q-147 0 -230 -89.5t-83 -226.5v-647q0 -68 21.5 -126t62 -101t99 -66.5t130.5 -23.5q111 0 188.5 57t104.5 170l86 -27q-14 -68 -47 -120t-80 -86.5 t-106.5 -54t-123.5 -21.5q-8 -23 -14 -47.5t-14 -49.5q51 -2 86 -18t55.5 -38.5t28.5 -48.5t8 -46q0 -25 -9.5 -50.5t-31 -47t-54 -35t-77.5 -13.5q-25 0 -68 4.5t-90 24.5l21 51q35 -14 68.5 -19t60.5 -5q41 0 73.5 20.5t32.5 69.5q0 41 -28.5 67.5t-77.5 26.5h-11.5 t-17.5 -2l-37 29l37 127q-172 10 -269.5 120.5t-97.5 284.5z" />
<glyph unicode="&#xc8;" horiz-adv-x="905" d="M135 0v1425h723v-86h-633v-571h547v-82h-547v-598h633v-88h-723zM219 1688l72 77l272 -221l-41 -47z" />
<glyph unicode="&#xc9;" horiz-adv-x="905" d="M135 0v1425h723v-86h-633v-571h547v-82h-547v-598h633v-88h-723zM369 1534l268 219l72 -76l-301 -186z" />
<glyph unicode="&#xca;" horiz-adv-x="905" d="M135 0v1425h723v-86h-633v-571h547v-82h-547v-598h633v-88h-723zM209 1538l252 215h69l242 -213l-37 -41l-243 164l-246 -164z" />
<glyph unicode="&#xcb;" horiz-adv-x="905" d="M135 0v1425h723v-86h-633v-571h547v-82h-547v-598h633v-88h-723zM279 1571v104h100v-104h-100zM623 1571v104h98v-104h-98z" />
<glyph unicode="&#xcc;" horiz-adv-x="397" d="M-94 1688l71 77l273 -221l-41 -47zM152 0v1425h92v-1425h-92z" />
<glyph unicode="&#xcd;" horiz-adv-x="397" d="M147 1534l269 219l71 -76l-301 -186zM152 0v1425h92v-1425h-92z" />
<glyph unicode="&#xce;" horiz-adv-x="397" d="M-86 1538l252 215h70l241 -213l-37 -41l-243 164l-246 -164zM152 0v1425h92v-1425h-92z" />
<glyph unicode="&#xcf;" horiz-adv-x="397" d="M-18 1571v104h100v-104h-100zM152 0v1425h92v-1425h-92zM326 1571v104h98v-104h-98z" />
<glyph unicode="&#xd0;" horiz-adv-x="1036" d="M16 709v73h117v643h397q147 0 237.5 -56t133.5 -167q25 -72 29 -196.5t4 -280.5v-154q0 -111 -4 -195.5t-27 -144.5q-27 -68 -67.5 -112.5t-94 -71.5t-117 -37t-132.5 -10h-359v709h-117zM225 84h281q231 0 303 170q16 37 24.5 91t8.5 101v478q0 70 -5.5 124t-21.5 111 q-25 84 -103.5 133t-205.5 49h-281v-559h289v-73h-289v-625z" />
<glyph unicode="&#xd1;" horiz-adv-x="1120" d="M133 0v1425h90l412 -747l258 -473h6v1220h90v-1425h-92q-102 188 -204.5 375.5t-207.5 378.5q-66 117 -129 234.5t-129 236.5h-2v-1225h-92zM272 1571q33 57 77 90t91 33q31 0 63 -13.5t62.5 -29t61 -27.5t59.5 -12q57 0 109 82l55 -33q-33 -68 -75 -98.5t-89 -30.5 q-31 0 -62.5 12t-62.5 27.5t-61.5 29t-59.5 13.5q-31 0 -58.5 -20.5t-55.5 -55.5z" />
<glyph unicode="&#xd2;" horiz-adv-x="993" d="M90 403v633q0 82 26.5 156t79 127t128 85t174.5 32q92 0 165.5 -30t126 -83t81 -127t28.5 -160v-641q0 -88 -28.5 -162.5t-81 -130t-127 -86t-164.5 -30.5q-98 0 -174 31.5t-128.5 87t-79 132t-26.5 166.5zM182 399q0 -145 83 -236t233 -91q70 0 126 25.5t97 68.5 t63.5 101.5t22.5 123.5v641q0 63 -20.5 120.5t-60.5 101.5t-97.5 70t-130.5 26q-76 0 -135.5 -26t-99.5 -69t-60.5 -100t-20.5 -123v-633zM262 1688l72 77l272 -221l-41 -47z" />
<glyph unicode="&#xd3;" horiz-adv-x="993" d="M90 403v633q0 82 26.5 156t79 127t128 85t174.5 32q92 0 165.5 -30t126 -83t81 -127t28.5 -160v-641q0 -88 -28.5 -162.5t-81 -130t-127 -86t-164.5 -30.5q-98 0 -174 31.5t-128.5 87t-79 132t-26.5 166.5zM182 399q0 -145 83 -236t233 -91q70 0 126 25.5t97 68.5 t63.5 101.5t22.5 123.5v641q0 63 -20.5 120.5t-60.5 101.5t-97.5 70t-130.5 26q-76 0 -135.5 -26t-99.5 -69t-60.5 -100t-20.5 -123v-633zM369 1534l268 219l72 -76l-301 -186z" />
<glyph unicode="&#xd4;" horiz-adv-x="993" d="M90 403v633q0 82 26.5 156t79 127t128 85t174.5 32q92 0 165.5 -30t126 -83t81 -127t28.5 -160v-641q0 -88 -28.5 -162.5t-81 -130t-127 -86t-164.5 -30.5q-98 0 -174 31.5t-128.5 87t-79 132t-26.5 166.5zM182 399q0 -145 83 -236t233 -91q70 0 126 25.5t97 68.5 t63.5 101.5t22.5 123.5v641q0 63 -20.5 120.5t-60.5 101.5t-97.5 70t-130.5 26q-76 0 -135.5 -26t-99.5 -69t-60.5 -100t-20.5 -123v-633zM209 1538l252 215h69l242 -213l-37 -41l-243 164l-246 -164z" />
<glyph unicode="&#xd5;" horiz-adv-x="993" d="M90 403v633q0 82 26.5 156t79 127t128 85t174.5 32q92 0 165.5 -30t126 -83t81 -127t28.5 -160v-641q0 -88 -28.5 -162.5t-81 -130t-127 -86t-164.5 -30.5q-98 0 -174 31.5t-128.5 87t-79 132t-26.5 166.5zM182 399q0 -145 83 -236t233 -91q70 0 126 25.5t97 68.5 t63.5 101.5t22.5 123.5v641q0 63 -20.5 120.5t-60.5 101.5t-97.5 70t-130.5 26q-76 0 -135.5 -26t-99.5 -69t-60.5 -100t-20.5 -123v-633zM205 1593q33 57 77 90t91 33q31 0 62.5 -13t62 -28.5t61.5 -28t59 -12.5q57 0 109 82l55 -33q-33 -68 -74.5 -98.5t-89.5 -30.5 q-31 0 -62.5 12.5t-62 28t-61.5 28.5t-59 13q-31 0 -58.5 -20.5t-56.5 -54.5z" />
<glyph unicode="&#xd6;" horiz-adv-x="993" d="M90 403v633q0 82 26.5 156t79 127t128 85t174.5 32q92 0 165.5 -30t126 -83t81 -127t28.5 -160v-641q0 -88 -28.5 -162.5t-81 -130t-127 -86t-164.5 -30.5q-98 0 -174 31.5t-128.5 87t-79 132t-26.5 166.5zM182 399q0 -145 83 -236t233 -91q70 0 126 25.5t97 68.5 t63.5 101.5t22.5 123.5v641q0 63 -20.5 120.5t-60.5 101.5t-97.5 70t-130.5 26q-76 0 -135.5 -26t-99.5 -69t-60.5 -100t-20.5 -123v-633zM266 1530v104h101v-104h-101zM600 1530v104h98v-104h-98z" />
<glyph unicode="&#xd8;" horiz-adv-x="993" d="M80 14l76 140q-66 102 -66 249v633q0 82 26.5 156t79 127t128 85t174.5 32q92 0 164.5 -30t125.5 -83q16 29 32 59.5t32 59.5l53 -31q-18 -35 -37.5 -68.5t-38.5 -68.5q70 -100 70 -238v-641q0 -88 -28.5 -162.5t-81 -130t-127 -86t-164.5 -30.5q-100 0 -175 31.5 t-128 86.5l-66 -118q-12 8 -25.5 14t-23.5 14zM182 399q0 -86 27 -147l532 985q-41 51 -101 82t-142 31q-76 0 -135.5 -26t-99.5 -69t-60.5 -100t-20.5 -123v-633zM242 193q41 -57 105.5 -89t150.5 -32q70 0 126 25.5t97 68.5t63.5 101.5t22.5 123.5v641q0 76 -31 142z" />
<glyph unicode="&#xd9;" horiz-adv-x="1024" d="M109 385v1040h90v-1034q0 -72 24.5 -130t66.5 -99t99 -64.5t123 -23.5q63 0 120.5 20.5t99.5 60.5t66.5 97t24.5 133v1040h92v-1046q0 -94 -31.5 -167t-87 -123t-129 -75.5t-155.5 -25.5q-84 0 -157.5 26.5t-128 77.5t-86 125t-31.5 168zM266 1688l72 77l272 -221 l-41 -47z" />
<glyph unicode="&#xda;" horiz-adv-x="1024" d="M109 385v1040h90v-1034q0 -72 24.5 -130t66.5 -99t99 -64.5t123 -23.5q63 0 120.5 20.5t99.5 60.5t66.5 97t24.5 133v1040h92v-1046q0 -94 -31.5 -167t-87 -123t-129 -75.5t-155.5 -25.5q-84 0 -157.5 26.5t-128 77.5t-86 125t-31.5 168zM395 1534l269 219l71 -76 l-301 -186z" />
<glyph unicode="&#xdb;" horiz-adv-x="1024" d="M109 385v1040h90v-1034q0 -72 24.5 -130t66.5 -99t99 -64.5t123 -23.5q63 0 120.5 20.5t99.5 60.5t66.5 97t24.5 133v1040h92v-1046q0 -94 -31.5 -167t-87 -123t-129 -75.5t-155.5 -25.5q-84 0 -157.5 26.5t-128 77.5t-86 125t-31.5 168zM221 1538l252 215h70l241 -213 l-36 -41l-244 164l-246 -164z" />
<glyph unicode="&#xdc;" horiz-adv-x="1024" d="M109 385v1040h90v-1034q0 -72 24.5 -130t66.5 -99t99 -64.5t123 -23.5q63 0 120.5 20.5t99.5 60.5t66.5 97t24.5 133v1040h92v-1046q0 -94 -31.5 -167t-87 -123t-129 -75.5t-155.5 -25.5q-84 0 -157.5 26.5t-128 77.5t-86 125t-31.5 168zM301 1530v104h100v-104h-100z M635 1530v104h98v-104h-98z" />
<glyph unicode="&#xdd;" horiz-adv-x="845" d="M14 1425h97l184 -432l127 -295l123 297q10 25 36.5 85.5t55.5 129t55.5 130t36.5 85.5h94l-360 -831v-594h-88v594zM303 1534l268 219l72 -76l-301 -186z" />
<glyph unicode="&#xde;" horiz-adv-x="964" d="M135 0v1446h92l-2 -309h303q193 0 296.5 -101.5t103.5 -306.5q0 -82 -21.5 -155.5t-68.5 -130t-122 -90.5t-181 -34h-310l2 -319h-92zM225 403h301q84 0 143.5 25t96.5 69t53.5 104t16.5 130q0 152 -78 236t-234 84h-299v-648z" />
<glyph unicode="&#xdf;" horiz-adv-x="886" d="M111 0v1102q0 174 77.5 277.5t249.5 103.5q78 0 136.5 -24.5t98.5 -68.5t60.5 -103.5t20.5 -129.5q0 -41 -7.5 -85t-24.5 -84t-47 -71.5t-73 -50.5v-4q59 -18 96 -54t57.5 -86t28 -112.5t7.5 -132.5q0 -88 -10.5 -175t-43 -155.5t-92 -110.5t-160.5 -42h-67v74h45 q88 0 136 39.5t69.5 102t25.5 137.5t4 147q0 63 -10 121.5t-36.5 103.5t-73 72.5t-117.5 27.5v80q55 0 94 21.5t63.5 56.5t35 79t10.5 89q0 51 -13.5 97t-41 82t-71.5 57.5t-106 21.5q-74 0 -120 -28.5t-71.5 -73t-33.5 -97.5t-8 -104v-1100h-88z" />
<glyph unicode="&#xe0;" horiz-adv-x="837" d="M63 270q0 61 18.5 117.5t57.5 97.5t99.5 65.5t144.5 24.5h268v156q0 96 -55 151.5t-172 55.5q-80 0 -142.5 -26.5t-99.5 -77.5q-10 6 -34.5 23t-34.5 24q49 66 122.5 103.5t188.5 37.5q68 0 126 -13.5t100 -47t66.5 -90t24.5 -142.5v-729h-90v96h-6q-47 -68 -125 -89 t-158 -21q-141 0 -220 77.5t-79 206.5zM150 276q0 -92 60 -150t177 -58q47 0 94 10t85 34.5t61.5 63.5t23.5 96v224h-264q-102 0 -169.5 -52.5t-67.5 -167.5zM256 1444l98 37l148 -312l-53 -22z" />
<glyph unicode="&#xe1;" horiz-adv-x="837" d="M63 270q0 61 18.5 117.5t57.5 97.5t99.5 65.5t144.5 24.5h268v156q0 96 -55 151.5t-172 55.5q-80 0 -142.5 -26.5t-99.5 -77.5q-10 6 -34.5 23t-34.5 24q49 66 122.5 103.5t188.5 37.5q68 0 126 -13.5t100 -47t66.5 -90t24.5 -142.5v-729h-90v96h-6q-47 -68 -125 -89 t-158 -21q-141 0 -220 77.5t-79 206.5zM150 276q0 -92 60 -150t177 -58q47 0 94 10t85 34.5t61.5 63.5t23.5 96v224h-264q-102 0 -169.5 -52.5t-67.5 -167.5zM406 1169l149 312l96 -37l-192 -297z" />
<glyph unicode="&#xe2;" horiz-adv-x="837" d="M63 270q0 61 18.5 117.5t57.5 97.5t99.5 65.5t144.5 24.5h268v156q0 96 -55 151.5t-172 55.5q-80 0 -142.5 -26.5t-99.5 -77.5q-10 6 -34.5 23t-34.5 24q49 66 122.5 103.5t188.5 37.5q68 0 126 -13.5t100 -47t66.5 -90t24.5 -142.5v-729h-90v96h-6q-47 -68 -125 -89 t-158 -21q-141 0 -220 77.5t-79 206.5zM141 1171l254 252h70l242 -247l-41 -39l-240 196l-242 -198zM150 276q0 -92 60 -150t177 -58q47 0 94 10t85 34.5t61.5 63.5t23.5 96v224h-264q-102 0 -169.5 -52.5t-67.5 -167.5z" />
<glyph unicode="&#xe3;" horiz-adv-x="837" d="M63 270q0 61 18.5 117.5t57.5 97.5t99.5 65.5t144.5 24.5h268v156q0 96 -55 151.5t-172 55.5q-80 0 -142.5 -26.5t-99.5 -77.5q-10 6 -34.5 23t-34.5 24q49 66 122.5 103.5t188.5 37.5q68 0 126 -13.5t100 -47t66.5 -90t24.5 -142.5v-729h-90v96h-6q-47 -68 -125 -89 t-158 -21q-141 0 -220 77.5t-79 206.5zM139 1245q33 57 77 90t91 33q31 0 62.5 -13.5t62.5 -28.5t61.5 -27.5t59.5 -12.5q57 0 109 82l55 -33q-33 -68 -75 -98.5t-89 -30.5q-31 0 -62.5 12.5t-62.5 28t-61.5 28.5t-59.5 13q-31 0 -58.5 -20.5t-55.5 -55.5zM150 276 q0 -92 60 -150t177 -58q47 0 94 10t85 34.5t61.5 63.5t23.5 96v224h-264q-102 0 -169.5 -52.5t-67.5 -167.5z" />
<glyph unicode="&#xe4;" horiz-adv-x="837" d="M63 270q0 61 18.5 117.5t57.5 97.5t99.5 65.5t144.5 24.5h268v156q0 96 -55 151.5t-172 55.5q-80 0 -142.5 -26.5t-99.5 -77.5q-10 6 -34.5 23t-34.5 24q49 66 122.5 103.5t188.5 37.5q68 0 126 -13.5t100 -47t66.5 -90t24.5 -142.5v-729h-90v96h-6q-47 -68 -125 -89 t-158 -21q-141 0 -220 77.5t-79 206.5zM150 276q0 -92 60 -150t177 -58q47 0 94 10t85 34.5t61.5 63.5t23.5 96v224h-264q-102 0 -169.5 -52.5t-67.5 -167.5zM205 1223v104h100v-104h-100zM549 1223v104h98v-104h-98z" />
<glyph unicode="&#xe5;" horiz-adv-x="837" d="M63 270q0 61 18.5 117.5t57.5 97.5t99.5 65.5t144.5 24.5h268v156q0 96 -55 151.5t-172 55.5q-80 0 -142.5 -26.5t-99.5 -77.5q-10 6 -34.5 23t-34.5 24q49 66 122.5 103.5t188.5 37.5q68 0 126 -13.5t100 -47t66.5 -90t24.5 -142.5v-729h-90v96h-6q-47 -68 -125 -89 t-158 -21q-141 0 -220 77.5t-79 206.5zM150 276q0 -92 60 -150t177 -58q47 0 94 10t85 34.5t61.5 63.5t23.5 96v224h-264q-102 0 -169.5 -52.5t-67.5 -167.5zM262 1303q0 37 13.5 67.5t36 54t54 37t66.5 13.5t65.5 -13.5t53 -37t36 -54.5t13.5 -67q0 -68 -49 -118t-119 -50 q-72 0 -121 50t-49 118zM315 1303q0 -47 35 -80t82 -33t81 32.5t34 80.5q0 49 -34 82.5t-81 33.5t-82 -33.5t-35 -82.5z" />
<glyph unicode="&#xe6;" horiz-adv-x="1411" d="M61 268q0 152 88.5 229.5t247.5 77.5h252v156q0 94 -53 150.5t-176 56.5q-68 0 -133.5 -24.5t-106.5 -79.5l-65 51q53 72 132 103.5t171 31.5q109 0 188.5 -34t112.5 -126q43 86 116.5 123t163.5 37q100 0 167 -35t106 -93t54 -136t15 -166v-94h-600q0 -74 8.5 -151 t36 -139.5t82 -102.5t144.5 -40q76 0 131 37t86 93l71 -43q-41 -82 -115.5 -122t-166.5 -40q-104 0 -190.5 43t-127.5 147q-53 -104 -137 -147t-203 -43q-141 0 -220 75.5t-79 204.5zM147 272q0 -92 59.5 -148t180.5 -56q63 0 112.5 19t82 52t50 76t17.5 90v191h-260 q-43 0 -86 -9.5t-78 -35t-56.5 -68.5t-21.5 -111zM743 571h508q0 68 -10 133.5t-36.5 117.5t-76 84t-124.5 32q-78 0 -127.5 -30.5t-79 -82t-41 -118t-13.5 -136.5z" />
<glyph unicode="&#xe7;" horiz-adv-x="761" d="M70 510q0 102 15 194.5t56 163t113 111.5t182 41q106 0 179 -45t108 -131q-20 -12 -38.5 -22.5t-39.5 -20.5q-23 61 -77 99t-132 38q-92 0 -146 -37t-84 -97.5t-39 -137t-9 -156.5q0 -78 9 -157t37.5 -142.5t83 -103t144.5 -39.5q78 0 132 36.5t77 96.5q18 -10 38 -19.5 t40 -19.5q-35 -80 -102.5 -124t-163.5 -50q-8 -23 -14.5 -47.5t-14.5 -49.5q51 -2 86 -18t55.5 -38.5t28.5 -48.5t8 -46q0 -25 -9 -50.5t-30.5 -47t-54.5 -35t-78 -13.5q-25 0 -68 4.5t-90 24.5l21 51q35 -14 68.5 -19t60.5 -5q41 0 73.5 20.5t32.5 69.5q0 41 -28.5 67.5 t-77.5 26.5h-11.5t-17.5 -2l-37 29l37 129q-102 6 -165.5 49t-98.5 113.5t-47 162t-12 195.5z" />
<glyph unicode="&#xe8;" horiz-adv-x="835" d="M74 520q0 94 14 185.5t53 161t107.5 112.5t177.5 43q100 0 165.5 -35t104.5 -95.5t54.5 -139t15.5 -166.5v-94h-602q0 -100 12 -179.5t43 -134.5t84 -83.5t135 -28.5q74 0 135.5 38.5t83.5 98.5l78 -37q-35 -86 -114.5 -133t-178.5 -47q-113 0 -184.5 35.5t-112.5 104.5 t-56 168t-15 226zM166 565h508v6q0 74 -9.5 139.5t-37 117t-75.5 81t-126 29.5t-127 -30.5t-79 -82t-41 -119t-13 -141.5zM256 1444l98 37l148 -312l-53 -22z" />
<glyph unicode="&#xe9;" horiz-adv-x="835" d="M74 520q0 94 14 185.5t53 161t107.5 112.5t177.5 43q100 0 165.5 -35t104.5 -95.5t54.5 -139t15.5 -166.5v-94h-602q0 -100 12 -179.5t43 -134.5t84 -83.5t135 -28.5q74 0 135.5 38.5t83.5 98.5l78 -37q-35 -86 -114.5 -133t-178.5 -47q-113 0 -184.5 35.5t-112.5 104.5 t-56 168t-15 226zM166 565h508v6q0 74 -9.5 139.5t-37 117t-75.5 81t-126 29.5t-127 -30.5t-79 -82t-41 -119t-13 -141.5zM365 1169l149 312l96 -37l-192 -297z" />
<glyph unicode="&#xea;" horiz-adv-x="835" d="M74 520q0 94 14 185.5t53 161t107.5 112.5t177.5 43q100 0 165.5 -35t104.5 -95.5t54.5 -139t15.5 -166.5v-94h-602q0 -100 12 -179.5t43 -134.5t84 -83.5t135 -28.5q74 0 135.5 38.5t83.5 98.5l78 -37q-35 -86 -114.5 -133t-178.5 -47q-113 0 -184.5 35.5t-112.5 104.5 t-56 168t-15 226zM152 1171l254 252h69l242 -247l-41 -39l-240 196l-241 -198zM166 565h508v6q0 74 -9.5 139.5t-37 117t-75.5 81t-126 29.5t-127 -30.5t-79 -82t-41 -119t-13 -141.5z" />
<glyph unicode="&#xeb;" horiz-adv-x="835" d="M74 520q0 94 14 185.5t53 161t107.5 112.5t177.5 43q100 0 165.5 -35t104.5 -95.5t54.5 -139t15.5 -166.5v-94h-602q0 -100 12 -179.5t43 -134.5t84 -83.5t135 -28.5q74 0 135.5 38.5t83.5 98.5l78 -37q-35 -86 -114.5 -133t-178.5 -47q-113 0 -184.5 35.5t-112.5 104.5 t-56 168t-15 226zM166 565h508v6q0 74 -9.5 139.5t-37 117t-75.5 81t-126 29.5t-127 -30.5t-79 -82t-41 -119t-13 -141.5zM203 1223v104h100v-104h-100zM547 1223v104h98v-104h-98z" />
<glyph unicode="&#xec;" horiz-adv-x="362" d="M-37 1444l98 37l148 -312l-53 -22zM137 0v1010h88v-1010h-88z" />
<glyph unicode="&#xed;" horiz-adv-x="362" d="M137 0v1010h88v-1010h-88zM141 1169l150 312l96 -37l-192 -297z" />
<glyph unicode="&#xee;" horiz-adv-x="483" d="M-41 1171l254 252h70l241 -247l-41 -39l-239 196l-242 -198zM197 0v1010h88v-1010h-88z" />
<glyph unicode="&#xef;" horiz-adv-x="401" d="M-20 1223v104h100v-104h-100zM156 0v1010h88v-1010h-88zM324 1223v104h98v-104h-98z" />
<glyph unicode="&#xf0;" horiz-adv-x="870" d="M78 459q0 100 7 168.5t30 128.5q35 92 116.5 143t192.5 51q76 0 148.5 -36.5t113.5 -108.5h6q0 47 -4 100t-13 105.5t-24.5 98.5t-36.5 81q-39 -29 -78.5 -57.5t-78.5 -57.5l-37 51q41 29 80 58.5t80 58.5q-47 59 -120 95t-163 48q6 41 14 76q70 -6 124 -22.5t94 -39 t70 -50t52 -54.5l137 101q10 -12 20.5 -24.5t20.5 -24.5l-143 -105q33 -53 51.5 -122.5t26.5 -147.5q4 -53 8 -129t6 -185v-104q0 -80 -3 -139.5t-10 -105.5t-18.5 -83t-25.5 -69q-41 -86 -113.5 -128t-189.5 -42q-137 0 -213 57q-72 55 -99.5 150.5t-27.5 263.5zM166 461 q0 -78 5 -134.5t17.5 -97.5t32 -69.5t45.5 -48.5q59 -47 156 -48q76 0 135 33t88 105q23 55 32 123.5t9 160.5q0 109 -12 165.5t-29 90.5q-31 61 -89 95t-132 34q-66 0 -121 -27.5t-90 -88.5q-25 -47 -35 -111.5t-12 -181.5z" />
<glyph unicode="&#xf1;" horiz-adv-x="880" d="M104 0v1010h91v-140h4q43 78 116.5 115t151.5 37q147 0 227 -85t80 -224v-713h-90v684q0 117 -54.5 183.5t-170.5 66.5q-57 0 -105.5 -20.5t-84.5 -57.5t-55 -87t-19 -107v-662h-91zM127 1245q33 57 77 90t91 33q31 0 62.5 -13.5t62.5 -28.5t61.5 -27.5t59.5 -12.5 q57 0 108 82l56 -33q-33 -68 -75 -98.5t-89 -30.5q-31 0 -63 12.5t-62.5 28t-61 28.5t-59.5 13q-31 0 -58.5 -20.5t-56.5 -55.5z" />
<glyph unicode="&#xf2;" horiz-adv-x="858" d="M82 500q0 100 7 181t28 140q37 102 119.5 151.5t195.5 49.5q92 0 155.5 -32t104.5 -85q47 -55 64.5 -157.5t17.5 -245.5q0 -92 -8 -181.5t-31 -146.5q-39 -100 -119.5 -143t-193.5 -43q-86 0 -145.5 25.5t-98.5 72.5q-53 55 -74.5 158.5t-21.5 255.5zM170 492 q0 -141 18.5 -223.5t59.5 -127.5q59 -76 180 -75q74 0 136.5 36.5t90.5 112.5q20 51 25.5 128t3.5 167q0 221 -39 299q-29 66 -85 98.5t-130 32.5q-72 0 -129 -30.5t-90 -92.5q-25 -47 -32 -129t-9 -196zM233 1444l99 37l147 -312l-53 -22z" />
<glyph unicode="&#xf3;" horiz-adv-x="858" d="M82 500q0 100 7 181t28 140q37 102 119.5 151.5t195.5 49.5q92 0 155.5 -32t104.5 -85q47 -55 64.5 -157.5t17.5 -245.5q0 -92 -8 -181.5t-31 -146.5q-39 -100 -119.5 -143t-193.5 -43q-86 0 -145.5 25.5t-98.5 72.5q-53 55 -74.5 158.5t-21.5 255.5zM170 492 q0 -141 18.5 -223.5t59.5 -127.5q59 -76 180 -75q74 0 136.5 36.5t90.5 112.5q20 51 25.5 128t3.5 167q0 221 -39 299q-29 66 -85 98.5t-130 32.5q-72 0 -129 -30.5t-90 -92.5q-25 -47 -32 -129t-9 -196zM375 1169l149 312l97 -37l-193 -297z" />
<glyph unicode="&#xf4;" horiz-adv-x="858" d="M82 500q0 100 7 181t28 140q37 102 119.5 151.5t195.5 49.5q92 0 155.5 -32t104.5 -85q47 -55 64.5 -157.5t17.5 -245.5q0 -92 -8 -181.5t-31 -146.5q-39 -100 -119.5 -143t-193.5 -43q-86 0 -145.5 25.5t-98.5 72.5q-53 55 -74.5 158.5t-21.5 255.5zM150 1171l253 252 h70l242 -247l-41 -39l-240 196l-241 -198zM170 492q0 -141 18.5 -223.5t59.5 -127.5q59 -76 180 -75q74 0 136.5 36.5t90.5 112.5q20 51 25.5 128t3.5 167q0 221 -39 299q-29 66 -85 98.5t-130 32.5q-72 0 -129 -30.5t-90 -92.5q-25 -47 -32 -129t-9 -196z" />
<glyph unicode="&#xf5;" horiz-adv-x="858" d="M84 500q0 100 7 181t28 140q37 102 119.5 151.5t195.5 49.5q92 0 155.5 -32t104.5 -85q47 -55 64.5 -157.5t17.5 -245.5q0 -92 -8 -181.5t-31 -146.5q-39 -100 -119.5 -143t-193.5 -43q-86 0 -145.5 25.5t-98.5 72.5q-53 55 -74.5 158.5t-21.5 255.5zM145 1245 q33 57 77 90t91 33q31 0 63 -13.5t62.5 -28.5t61 -27.5t59.5 -12.5q57 0 109 82l55 -33q-33 -68 -75 -98.5t-89 -30.5q-31 0 -62.5 12.5t-62.5 28t-61.5 28.5t-59.5 13q-31 0 -58.5 -20.5t-55.5 -55.5zM172 492q0 -141 18.5 -223.5t59.5 -127.5q59 -76 180 -75 q74 0 136.5 36.5t90.5 112.5q20 51 25.5 128t3.5 167q0 221 -39 299q-29 66 -85 98.5t-130 32.5q-72 0 -129 -30.5t-90 -92.5q-25 -47 -32 -129t-9 -196z" />
<glyph unicode="&#xf6;" horiz-adv-x="858" d="M82 500q0 100 7 181t28 140q37 102 119.5 151.5t195.5 49.5q92 0 155.5 -32t104.5 -85q47 -55 64.5 -157.5t17.5 -245.5q0 -92 -8 -181.5t-31 -146.5q-39 -100 -119.5 -143t-193.5 -43q-86 0 -145.5 25.5t-98.5 72.5q-53 55 -74.5 158.5t-21.5 255.5zM170 492 q0 -141 18.5 -223.5t59.5 -127.5q59 -76 180 -75q74 0 136.5 36.5t90.5 112.5q20 51 25.5 128t3.5 167q0 221 -39 299q-29 66 -85 98.5t-130 32.5q-72 0 -129 -30.5t-90 -92.5q-25 -47 -32 -129t-9 -196zM209 1223v104h100v-104h-100zM553 1223v104h98v-104h-98z" />
<glyph unicode="&#xf7;" d="M43 549v76h754v-76h-754zM348 256q0 33 22.5 54.5t53.5 21.5q29 0 52.5 -21.5t23.5 -54.5q0 -31 -22.5 -53.5t-53.5 -22.5q-33 0 -54.5 22.5t-21.5 53.5zM348 909q0 33 22.5 53.5t53.5 20.5q29 0 52.5 -20.5t23.5 -53.5q0 -31 -22.5 -53t-53.5 -22q-33 0 -54.5 22.5 t-21.5 52.5z" />
<glyph unicode="&#xf8;" horiz-adv-x="858" d="M82 23q16 27 32.5 51t32.5 51q-37 59 -51 152.5t-14 222.5q0 100 7 181t28 140q37 102 119.5 151.5t195.5 49.5q78 0 135.5 -23.5t98.5 -64.5q14 23 28.5 46.5t30.5 45.5q12 -8 24.5 -15t24.5 -18l-69 -106q41 -57 55 -154.5t14 -230.5q0 -92 -8 -181.5t-31 -146.5 q-39 -100 -119.5 -143t-193.5 -43q-84 0 -141.5 23.5t-96.5 66.5q-14 -23 -28.5 -44.5t-28.5 -43.5q-10 8 -22.5 15t-22.5 18zM170 492q0 -186 33 -279q104 162 206.5 322.5t206.5 322.5q-65 82 -186 82q-72 0 -129 -30.5t-90 -92.5q-25 -47 -32 -129t-9 -196zM236 156 l12 -15q59 -76 180 -75q74 0 136.5 36.5t90.5 112.5q20 51 25.5 128t3.5 167q0 211 -35 291q-104 -162 -206.5 -323t-206.5 -322z" />
<glyph unicode="&#xf9;" horiz-adv-x="897" d="M111 295v715h90v-684q0 -117 62.5 -185.5t176.5 -68.5q57 0 103.5 21.5t79 58t51 87t18.5 109.5v662h86v-1010h-86v139h-6q-43 -80 -116.5 -115.5t-151.5 -35.5q-147 0 -227 85t-80 222zM256 1444l98 37l148 -312l-53 -22z" />
<glyph unicode="&#xfa;" horiz-adv-x="897" d="M111 295v715h90v-684q0 -117 62.5 -185.5t176.5 -68.5q57 0 103.5 21.5t79 58t51 87t18.5 109.5v662h86v-1010h-86v139h-6q-43 -80 -116.5 -115.5t-151.5 -35.5q-147 0 -227 85t-80 222zM385 1169l150 312l96 -37l-193 -297z" />
<glyph unicode="&#xfb;" horiz-adv-x="897" d="M111 295v715h90v-684q0 -117 62.5 -185.5t176.5 -68.5q57 0 103.5 21.5t79 58t51 87t18.5 109.5v662h86v-1010h-86v139h-6q-43 -80 -116.5 -115.5t-151.5 -35.5q-147 0 -227 85t-80 222zM162 1171l254 252h69l242 -247l-41 -39l-240 196l-241 -198z" />
<glyph unicode="&#xfc;" horiz-adv-x="897" d="M111 295v715h90v-684q0 -117 62.5 -185.5t176.5 -68.5q57 0 103.5 21.5t79 58t51 87t18.5 109.5v662h86v-1010h-86v139h-6q-43 -80 -116.5 -115.5t-151.5 -35.5q-147 0 -227 85t-80 222zM215 1223v104h100v-104h-100zM559 1223v104h98v-104h-98z" />
<glyph unicode="&#xfd;" horiz-adv-x="749" d="M12 1006h97l139 -445l127 -426h4q6 25 26.5 91.5t48 155.5t57.5 188.5t57.5 187.5t47 155.5t27.5 92.5h94q-96 -311 -190 -617.5t-193 -615.5q-29 -98 -80 -145.5t-139 -47.5h-41v78h33q66 0 98.5 44t55.5 120l55 178q-84 252 -162 502t-162 504zM317 1169l150 312 l96 -37l-192 -297z" />
<glyph unicode="&#xfe;" horiz-adv-x="862" d="M96 -416v1843h88v-555l4 -2q47 88 117 120t148 32q109 0 173 -43t97 -113.5t42 -164t9 -191.5t-10 -191.5t-46 -167t-101.5 -118.5t-176.5 -45q-92 0 -150.5 39t-101.5 102h-4v-545h-88zM184 500q0 -70 6.5 -144.5t31 -137t72.5 -103.5t132 -43q88 0 139 37.5t77 99 t33 140.5t7 159q0 88 -7 167t-34 137t-76 92t-133 34q-90 0 -140 -43t-73.5 -107.5t-29 -142.5t-5.5 -145z" />
<glyph unicode="&#xff;" horiz-adv-x="749" d="M12 1006h97l139 -445l127 -426h4q6 25 26.5 91.5t48 155.5t57.5 188.5t57.5 187.5t47 155.5t27.5 92.5h94q-96 -311 -190 -617.5t-193 -615.5q-29 -98 -80 -145.5t-139 -47.5h-41v78h33q66 0 98.5 44t55.5 120l55 178q-84 252 -162 502t-162 504zM156 1223v104h100v-104 h-100zM500 1223v104h98v-104h-98z" />
<glyph unicode="&#x131;" horiz-adv-x="362" d="M137 0v1010h88v-1010h-88z" />
<glyph unicode="&#x152;" horiz-adv-x="1415" d="M90 485v502v48t4 46q6 74 35 138.5t79 112.5t121.5 76t164.5 28q35 0 65.5 -4.5t61.5 -6.5h718v-86h-628v-571h542v-82h-542v-600h628v-86h-714q-55 -12 -131 -12q-168 0 -271.5 85t-124.5 232q-6 45 -7 89t-1 91zM180 449q0 -84 16.5 -154t54.5 -120t98.5 -77.5 t146.5 -27.5q68 0 122 18v1243q-27 10 -57 13.5t-65 3.5q-98 0 -160 -35t-96.5 -91.5t-47 -128t-12.5 -145.5v-499z" />
<glyph unicode="&#x153;" horiz-adv-x="1449" d="M82 500q0 100 7 181t28 138q39 104 119.5 152.5t195.5 48.5q76 0 134.5 -23.5t99.5 -62.5q49 -49 69 -127q33 94 104.5 153.5t200.5 59.5q100 0 165 -35t104 -94.5t54 -139t15 -167.5v-95h-600q0 -100 12.5 -179t43 -133t84 -82.5t135.5 -28.5q74 0 135 38.5t84 98.5 q20 -10 38.5 -19.5t37.5 -19.5q-35 -86 -114 -131t-177 -45q-141 0 -216 53t-108 154q-16 -43 -33 -68q-88 -139 -278 -139q-131 0 -207 55q-78 57 -105.5 166.5t-27.5 290.5zM170 489q0 -92 7 -160.5t24 -117.5q25 -63 67 -100q29 -25 69 -35t89 -10q78 0 138.5 37.5 t88.5 113.5q18 53 24.5 127t6.5 164q0 113 -11 187.5t-28 113.5q-29 66 -85 98.5t-132 32.5q-72 0 -129 -30.5t-88 -94.5q-25 -45 -33 -127t-8 -199zM780 563h508v4q0 66 -9 132.5t-35.5 119.5t-76 86t-127.5 33t-127 -30.5t-78.5 -82t-41 -120t-13.5 -142.5z" />
<glyph unicode="&#x178;" horiz-adv-x="845" d="M14 1425h97l184 -432l127 -295l123 297q10 25 36.5 85.5t55.5 129t55.5 130t36.5 85.5h94l-360 -831v-594h-88v594zM215 1530v104h100v-104h-100zM549 1530v104h98v-104h-98z" />
<glyph unicode="&#x192;" d="M-25 -170q4 14 12.5 39t12.5 37q53 -16 98 -17q92 0 142.5 70t72.5 231q2 12 8.5 56.5t13.5 103t16 124t16.5 123.5t13.5 102t8 57h-172v78h182l33 245q10 78 30.5 143.5t56.5 112.5t89.5 74t126.5 27q31 0 62.5 -5.5t60.5 -13.5q-4 -18 -9 -36.5t-13 -45.5 q-55 16 -103 17q-86 0 -141 -61.5t-74 -213.5q-4 -23 -7 -55.5t-8 -66t-9.5 -66.5t-8.5 -55h209v-78h-217l-74 -561q-23 -186 -91 -285.5t-208 -99.5q-29 0 -64.5 5t-64.5 15z" />
<glyph unicode="&#x2c6;" horiz-adv-x="886" d="M162 1171l254 252h69l242 -247l-41 -39l-240 196l-241 -198z" />
<glyph unicode="&#x2c7;" horiz-adv-x="843" d="M141 1389l41 36l244 -198l240 198l41 -41l-242 -249h-70z" />
<glyph unicode="&#x2d8;" horiz-adv-x="958" d="M229 1380h76q10 -63 61.5 -108t114.5 -45q66 0 117 44t61 109h76q-6 -39 -22.5 -78.5t-46 -73.5t-75.5 -55.5t-110 -21.5q-63 0 -108 21.5t-76 55.5t-47.5 73.5t-20.5 78.5z" />
<glyph unicode="&#x2d9;" horiz-adv-x="837" d="M393 1223v104h99v-104h-99z" />
<glyph unicode="&#x2da;" horiz-adv-x="837" d="M274 1303q0 37 13.5 67.5t36 54t54.5 37t66 13.5q35 0 66 -13.5t53.5 -37t35.5 -54.5t13 -67q0 -68 -49 -118t-119 -50q-72 0 -121 50t-49 118zM328 1303q0 -47 34.5 -80t81.5 -33t81 32.5t34 80.5q0 49 -34 82.5t-81 33.5t-81.5 -33.5t-34.5 -82.5z" />
<glyph unicode="&#x2db;" horiz-adv-x="739" d="M301 -190q0 41 19.5 92t64.5 104l72 -2l2 -2q-35 -45 -56.5 -94t-21.5 -84q0 -55 27.5 -81t74.5 -26q23 0 51.5 7.5t59.5 23.5l27 -59q-29 -18 -70 -30.5t-82 -12.5q-78 0 -123 49t-45 115z" />
<glyph unicode="&#x2dc;" horiz-adv-x="864" d="M139 1245q33 57 77 90t91 33q31 0 62.5 -13.5t62.5 -28.5t61.5 -27.5t59.5 -12.5q57 0 109 82l55 -33q-33 -68 -75 -98.5t-89 -30.5q-31 0 -62.5 12.5t-62.5 28t-61.5 28.5t-59.5 13q-31 0 -58.5 -20.5t-55.5 -55.5z" />
<glyph unicode="&#x2dd;" horiz-adv-x="837" d="M244 1169l149 312l96 -37l-192 -297zM436 1169l152 312l94 -37l-193 -297z" />
<glyph unicode="&#x3a9;" horiz-adv-x="991" d="M63 0v84h183v4q-49 29 -79 68t-47.5 88t-23.5 109.5t-6 131.5v547q0 90 30 164t83 127t129 83t166 30q86 0 158.5 -28t127 -80t85 -127t30.5 -169v-547q0 -133 -28 -231t-126 -168q6 -2 13.5 -2h13.5h154v-84h-314v100q92 35 143.5 118t51.5 188v622q0 147 -86 233.5 t-223 86.5q-147 0 -230.5 -89.5t-83.5 -230.5v-629q0 -106 50.5 -186t140.5 -115v-98h-312z" />
<glyph unicode="&#x3c0;" horiz-adv-x="907" d="M121 0v1008h667v-1008h-90v932h-487v-932h-90z" />
<glyph unicode="&#x401;" horiz-adv-x="905" d="M135 0v1425h723v-86h-633v-571h547v-82h-547v-598h633v-88h-723zM268 1530v104h101v-104h-101zM602 1530v104h98v-104h-98z" />
<glyph unicode="&#x402;" horiz-adv-x="1191" d="M12 1341v82h881v-82h-451v-497h2q72 57 155 90t161 33q184 0 267 -119t83 -375q0 -123 -22.5 -218t-70.5 -159.5t-126 -97.5t-189 -29v74q90 0 150.5 28.5t97.5 84t52.5 134.5t15.5 177q0 94 -11.5 170t-41 129t-80.5 83t-131 30q-96 0 -175 -39t-137 -95v-745h-90v1341 h-340z" />
<glyph unicode="&#x403;" horiz-adv-x="876" d="M135 0v1425h717v-86h-623v-1339h-94zM352 1534l269 221l71 -76l-303 -188z" />
<glyph unicode="&#x404;" horiz-adv-x="929" d="M100 399v629q0 88 27 164t78 130t127 85t172 31q135 0 237.5 -64.5t139.5 -191.5l-86 -35q-27 98 -103 151.5t-186 53.5q-78 0 -136.5 -24.5t-97.5 -69t-59 -103.5t-20 -129v-262h475v-84h-475v-287q0 -68 20 -127t59 -102t97.5 -67.5t136.5 -24.5q106 0 184 53t109 160 l84 -33q-35 -133 -140.5 -199.5t-238.5 -66.5q-96 0 -172 30.5t-127 85t-78 130t-27 167.5z" />
<glyph unicode="&#x405;" horiz-adv-x="948" d="M61 213l80 47q45 -78 126 -132t206 -54q156 0 231.5 82t75.5 215q0 76 -21.5 127t-60.5 85.5t-95 58.5t-126 46q-100 31 -173 63.5t-120 75.5t-69.5 100.5t-22.5 137.5q0 82 25.5 150.5t75 117.5t121 77t163.5 28q154 0 237 -46t136 -128l-82 -56q-41 70 -110.5 107 t-182.5 37q-139 0 -214 -82t-75 -205q0 -66 23.5 -111t65.5 -77.5t102.5 -57t134.5 -49.5q92 -29 160.5 -61.5t115 -76.5t69 -107.5t22.5 -153.5q0 -176 -102.5 -279.5t-305.5 -103.5q-158 0 -257 60.5t-153 164.5z" />
<glyph unicode="&#x406;" horiz-adv-x="397" d="M152 0v1425h92v-1425h-92z" />
<glyph unicode="&#x407;" horiz-adv-x="397" d="M-20 1589v105h100v-105h-100zM152 0v1425h92v-1425h-92zM324 1589v105h98v-105h-98z" />
<glyph unicode="&#x408;" horiz-adv-x="788" d="M25 76l61 67q84 -70 182 -69q57 0 109.5 13t91.5 47t61.5 90.5t22.5 140.5v1060h94v-1079q0 -92 -28.5 -158.5t-79 -111.5t-119 -66.5t-148.5 -21.5q-63 0 -131.5 21.5t-115.5 66.5z" />
<glyph unicode="&#x409;" horiz-adv-x="1597" d="M12 43q57 37 100.5 76t72 106.5t42 177t13.5 287.5v735h600v-643h311q106 0 181 -30.5t122 -83t68.5 -123t21.5 -148.5q0 -193 -103.5 -295t-301.5 -102h-391v1341h-420v-661q0 -174 -15.5 -294t-49.5 -200t-87 -130t-127 -87q-6 8 -19.5 37t-17.5 37zM840 86h301 q156 0 231.5 82t75.5 229q0 131 -75 216t-232 85h-301v-612z" />
<glyph unicode="&#x40a;" horiz-adv-x="1587" d="M133 0v1425h92v-645h518v645h95v-645h290q213 0 312.5 -104.5t99.5 -280.5q0 -193 -102.5 -294t-300.5 -101h-394v694h-518v-694h-92zM838 86h299q156 0 232.5 80t76.5 229q0 131 -78 214t-242 83h-288v-606z" />
<glyph unicode="&#x40b;" horiz-adv-x="1191" d="M23 1343v82h897v-82h-465v-487l4 -2q80 63 158.5 87t154.5 24q170 0 250 -91.5t80 -232.5v-641h-90v602q0 61 -13.5 111.5t-44 87.5t-79 57.5t-117.5 20.5q-92 0 -172 -37t-131 -97v-745h-93v1343h-339z" />
<glyph unicode="&#x40c;" horiz-adv-x="978" d="M133 0v1425h90v-647h232q37 0 75.5 9.5t74.5 34t64.5 66.5t47.5 109l123 428h84l-109 -409q-29 -104 -77 -176t-124 -95q96 -23 142.5 -97.5t72.5 -180.5l121 -467h-96l-117 463q-18 72 -44.5 117t-60.5 70.5t-72 34.5t-81 9h-256v-694h-90zM412 1534l268 219l72 -76 l-301 -186z" />
<glyph unicode="&#x40e;" horiz-adv-x="899" d="M35 1423h96l324 -952h6q31 94 71.5 219t82.5 256t83 256t72 221h94q-94 -287 -187 -568.5t-190 -567.5q-31 -92 -62.5 -149.5t-65 -91.5t-72.5 -46t-84 -12h-62v84h54q57 0 105 41t83 145l27 84q-94 272 -188.5 540.5t-186.5 540.5zM201 1661h75q10 -63 61.5 -108.5 t115.5 -45.5q66 0 117 44t61 110h76q-6 -39 -22.5 -79t-46.5 -73.5t-76 -55t-109 -21.5t-108.5 21.5t-76 55t-47 73.5t-20.5 79z" />
<glyph unicode="&#x40f;" horiz-adv-x="1050" d="M131 0v1423h94v-1337h602v1337h95v-1423h-347v-309h-100v309h-344z" />
<glyph unicode="&#x410;" horiz-adv-x="985" d="M25 0l415 1425h103l418 -1425h-97q-8 31 -21.5 80t-28.5 100t-29.5 100.5t-22.5 79.5h-541l-102 -360h-94zM242 444h497l-149 512l-96 349h-7q-115 -412 -245 -861z" />
<glyph unicode="&#x411;" horiz-adv-x="952" d="M96 0v1425h695v-84h-603v-557h308q106 0 182 -30.5t123 -83t69.5 -123t22.5 -150.5q0 -193 -102.5 -295t-303.5 -102h-391zM188 88h301q156 0 233 79.5t77 229.5q0 131 -76 216t-234 85h-301v-610z" />
<glyph unicode="&#x412;" horiz-adv-x="1017" d="M135 0v1425h406q190 0 280 -98t90 -260q0 -49 -9 -96t-30.5 -90t-60.5 -78t-96 -58v-2q61 -16 104 -51t68.5 -82t38 -102.5t12.5 -110.5q0 -100 -27.5 -175t-77 -124t-117 -73.5t-147.5 -24.5h-434zM225 88h324q82 0 138 24.5t91 67.5t50.5 100.5t15.5 122.5 q0 131 -68.5 214t-212.5 83h-338v-612zM225 782h320q139 0 207.5 76t68.5 207q0 127 -71.5 202.5t-223.5 75.5h-301v-561z" />
<glyph unicode="&#x413;" horiz-adv-x="878" d="M135 0v1425h717v-86h-623v-1339h-94z" />
<glyph unicode="&#x414;" horiz-adv-x="1179" d="M25 78l73 6q43 35 74 85t53.5 130t35.5 197.5t20 289.5l22 639h723v-1343h92v-373h-90v291h-913v-291h-90v369zM221 80h711v1261h-543q-4 -147 -10 -292.5t-12 -292.5q-10 -248 -40 -413t-106 -263z" />
<glyph unicode="&#x415;" horiz-adv-x="905" d="M135 0v1425h723v-86h-633v-571h547v-82h-547v-598h633v-88h-723z" />
<glyph unicode="&#x416;" horiz-adv-x="1525" d="M33 0l121 467q27 106 72.5 181t142.5 97q-76 23 -124 94.5t-77 176.5l-111 407h86l121 -426q18 -68 48 -109.5t66 -66t75 -34t75 -9.5h189v647h92v-647h188q37 0 77 9.5t75 34t64.5 66.5t48.5 109l120 426h86l-110 -407q-29 -104 -77 -176t-124 -95q49 -12 84 -36.5 t59.5 -60.5t42 -82t31.5 -99l119 -467h-94l-119 463q-18 72 -45 117t-59.5 70.5t-71.5 34.5t-82 9h-213v-694h-92v694h-211q-43 0 -82 -9t-73 -34.5t-60.5 -70.5t-44.5 -117l-117 -463h-96z" />
<glyph unicode="&#x417;" horiz-adv-x="944" d="M33 281q23 8 43 15t43 13q25 -123 112.5 -182t198.5 -59q160 0 239 89t83 246q0 82 -20.5 141.5t-54.5 97.5t-79 56.5t-94 18.5h-144v82h132q113 0 178 77.5t65 213.5q0 63 -21.5 112t-60.5 82t-90 49.5t-110 16.5q-115 0 -202 -59.5t-110 -168.5l-86 29q14 70 52 123 t91.5 89t119 54.5t137.5 18.5q180 0 276 -90.5t96 -253.5q0 -37 -7 -86.5t-27.5 -96.5t-55.5 -87t-90 -60v-4q70 -23 109 -68t58.5 -97t24.5 -103.5t5 -83.5q0 -203 -109.5 -310.5t-306.5 -107.5q-74 0 -139.5 18.5t-117.5 54t-89 91t-49 129.5z" />
<glyph unicode="&#x418;" horiz-adv-x="1091" d="M125 0v1425h90v-1241q2 0 3 -1t3 -1q70 131 137.5 261t137.5 259l389 723h88v-1425h-90v1241h-4l-273 -510l-391 -731h-90z" />
<glyph unicode="&#x419;" horiz-adv-x="1091" d="M125 0v1425h90v-1241q2 0 3 -1t3 -1q70 131 137.5 261t137.5 259l389 723h88v-1425h-90v1241h-4l-273 -510l-391 -731h-90zM287 1755h75q10 -63 61.5 -108t115.5 -45q66 0 117 44t61 109h76q-6 -39 -22.5 -79t-46.5 -73.5t-76 -55t-109 -21.5t-108.5 21.5t-76 55 t-47 73.5t-20.5 79z" />
<glyph unicode="&#x41a;" horiz-adv-x="978" d="M133 0v1425h90v-647h232q37 0 75.5 9.5t74.5 34t64.5 66.5t47.5 109l123 428h84l-109 -409q-29 -104 -77 -176t-124 -95q96 -23 142.5 -97.5t72.5 -180.5l121 -467h-96l-117 463q-18 72 -44.5 117t-60.5 70.5t-72 34.5t-81 9h-256v-694h-90z" />
<glyph unicode="&#x41b;" horiz-adv-x="1081" d="M4 41q59 37 102.5 78t72 109.5t43 177t14.5 282.5v737h706v-1425h-92v1339h-526v-659q0 -176 -15.5 -296t-49.5 -201t-88 -130t-132 -84q-10 18 -18.5 36t-16.5 36z" />
<glyph unicode="&#x41c;" horiz-adv-x="1304" d="M131 0v1425h94q57 -135 114.5 -269t117.5 -269l196 -467h4l201 469l232 536h90v-1425h-90v1208h-3l-215 -508l-182 -421h-72l-182 421l-209 500h-6v-1200h-90z" />
<glyph unicode="&#x41d;" horiz-adv-x="1062" d="M135 0v1425h90v-657h611v657h94v-1425h-94v684h-611v-684h-90z" />
<glyph unicode="&#x41e;" horiz-adv-x="993" d="M90 403v633q0 82 26.5 156t79 127t128 85t174.5 32q92 0 165.5 -30t126 -83t81 -127t28.5 -160v-641q0 -88 -28.5 -162.5t-81 -130t-127 -86t-164.5 -30.5q-98 0 -174 31.5t-128.5 87t-79 132t-26.5 166.5zM182 399q0 -145 83 -236t233 -91q70 0 126 25.5t97 68.5 t63.5 101.5t22.5 123.5v641q0 63 -20.5 120.5t-60.5 101.5t-97.5 70t-130.5 26q-76 0 -135.5 -26t-99.5 -69t-60.5 -100t-20.5 -123v-633z" />
<glyph unicode="&#x41f;" horiz-adv-x="1056" d="M135 0v1425h791v-1425h-95v1343h-606v-1343h-90z" />
<glyph unicode="&#x420;" horiz-adv-x="964" d="M135 0v1425h393q195 0 298.5 -101t103.5 -306q0 -82 -21.5 -156t-68.5 -130t-122 -90t-181 -34h-310v-608h-92zM227 694h299q86 0 145.5 24.5t96.5 68.5t53.5 103.5t16.5 129.5q0 154 -78 237.5t-236 83.5h-297v-647z" />
<glyph unicode="&#x421;" horiz-adv-x="935" d="M102 393v641q0 88 29 163t81 127t127 82t167 30q137 0 240.5 -69t136.5 -202l-88 -30q-23 104 -100 159.5t-189 55.5q-147 0 -230 -89.5t-83 -226.5v-647q0 -68 21.5 -126t62 -101t99 -66.5t130.5 -23.5q111 0 188.5 57t104.5 170l86 -27q-14 -72 -50 -125t-86.5 -87.5 t-113 -53t-129.5 -18.5q-92 0 -167 29.5t-127 83t-81 128t-29 166.5z" />
<glyph unicode="&#x422;" horiz-adv-x="817" d="M12 1341v84h791v-84h-348v-1341h-90v1341h-353z" />
<glyph unicode="&#x423;" horiz-adv-x="899" d="M35 1423h96l324 -952h6q31 94 71.5 219t82.5 256t83 256t72 221h94q-94 -287 -187 -568.5t-190 -567.5q-31 -92 -62.5 -149.5t-65 -91.5t-72.5 -46t-84 -12h-62v84h54q57 0 105 41t83 145l27 84q-94 272 -188.5 540.5t-186.5 540.5z" />
<glyph unicode="&#x424;" horiz-adv-x="1236" d="M92 731q0 111 15.5 209t56.5 178t112.5 135.5t182.5 77.5q25 6 52.5 10.5t59.5 6.5v77h91v-77q31 0 58.5 -5.5t49.5 -9.5q111 -23 183.5 -78t115.5 -135t61.5 -179t18.5 -210q0 -115 -17.5 -212t-61.5 -174t-116.5 -131t-183.5 -79q-23 -8 -50.5 -11t-57.5 -5v-119h-91 v119q-29 -2 -56.5 4t-49.5 10q-113 20 -184.5 71.5t-113.5 128.5t-58.5 177t-16.5 221zM180 733q2 -127 21.5 -224t63.5 -163.5t119 -102.5t187 -42v1063q-123 -4 -198.5 -45t-117.5 -112t-57.5 -166t-17.5 -208zM664 201q111 6 185.5 46t120.5 108.5t66.5 163.5t20.5 212 q0 119 -20.5 216t-66.5 166t-121 108t-185 43v-1063z" />
<glyph unicode="&#x425;" horiz-adv-x="868" d="M18 0l367 729l-348 694h100l297 -606l295 606h100l-348 -694l369 -729h-102l-314 637l-315 -637h-101z" />
<glyph unicode="&#x426;" horiz-adv-x="1062" d="M135 0v1425h90v-1339h609v1339h94v-1341h90v-375h-88v291h-795z" />
<glyph unicode="&#x427;" horiz-adv-x="995" d="M90 977v448h88v-438q0 -305 303 -305q55 0 137 19.5t156 64.5v659h92v-1425h-92v682q-78 -41 -163 -60.5t-148 -19.5q-82 0 -150.5 19.5t-118 63.5t-77 115.5t-27.5 176.5z" />
<glyph unicode="&#x428;" horiz-adv-x="1576" d="M129 0v1425h94v-1339h514v1339h94v-1339h523v1339h94v-1425h-1319z" />
<glyph unicode="&#x429;" horiz-adv-x="1589" d="M129 0v1425h92v-1339h516v1339h92v-1339h525v1339h94v-1341h92v-375h-88v291h-1323z" />
<glyph unicode="&#x42a;" horiz-adv-x="1249" d="M18 1339v86h467v-641h322q100 0 173 -30.5t120 -83t68.5 -123t21.5 -150.5q0 -199 -103.5 -298t-300.5 -99h-391v1339h-377zM485 86h303q154 0 231 81t77 230q0 147 -78 224t-242 77h-291v-612z" />
<glyph unicode="&#x42b;" horiz-adv-x="1290" d="M137 0v1425h92v-641h308q106 0 181 -30.5t122 -83t69.5 -123t22.5 -150.5q0 -193 -102.5 -295t-301.5 -102h-391zM229 86h301q154 0 231 80.5t77 230.5q0 129 -76 215t-234 86h-299v-612zM1063 0v1425h92v-1425h-92z" />
<glyph unicode="&#x42c;" horiz-adv-x="964" d="M104 0v1425h93v-641h305q106 0 182 -30.5t124 -83t70.5 -123t22.5 -150.5q0 -193 -102.5 -295t-302.5 -102h-392zM197 86h301q156 0 231.5 81t75.5 230q0 147 -83 224t-233 77h-292v-612z" />
<glyph unicode="&#x42d;" horiz-adv-x="937" d="M41 258l86 31q31 -111 105.5 -165t181.5 -54q84 0 144 26.5t98 74.5t56.5 112.5t18.5 138.5v262h-459v86h459v227q0 78 -18.5 143.5t-56.5 112.5t-96 74t-138 27q-109 0 -186.5 -56.5t-104.5 -154.5l-88 33q35 127 138.5 194.5t242.5 67.5q104 0 180 -33t124 -92.5 t70.5 -140t22.5 -175.5v-575q0 -203 -101.5 -319.5t-303.5 -116.5q-139 0 -239.5 68.5t-135.5 203.5z" />
<glyph unicode="&#x42e;" horiz-adv-x="1284" d="M129 0v1425h94v-659h191v274q0 82 24.5 155t73.5 126t122 84t169 31q92 0 163.5 -29t121 -81t75 -125t25.5 -161v-653q0 -98 -29 -173t-80 -125t-121.5 -76.5t-154.5 -26.5q-96 0 -169 29.5t-122 84t-73.5 130t-24.5 165.5v289h-191v-684h-94zM506 395q0 -143 75.5 -233 t223.5 -90q129 0 210 82t81 231v649q0 63 -18.5 120.5t-55.5 100.5t-92.5 69t-126.5 26q-76 0 -131.5 -25t-92 -68t-55 -100t-18.5 -123v-639z" />
<glyph unicode="&#x42f;" horiz-adv-x="1036" d="M53 0l107 446q23 92 60.5 157t115.5 95q-121 35 -173 124t-52 216q0 176 100 281.5t295 105.5h395v-1425h-90v670h-299q-41 0 -81 -9.5t-73.5 -35t-60.5 -71.5t-45 -118l-105 -436h-94zM203 1038q0 -154 86 -220t229 -66h293v591h-291q-147 0 -232 -79t-85 -226z" />
<glyph unicode="&#x430;" horiz-adv-x="837" d="M63 270q0 61 18.5 117.5t57.5 97.5t99.5 65.5t144.5 24.5h268v156q0 96 -55 151.5t-172 55.5q-80 0 -142.5 -26.5t-99.5 -77.5q-10 6 -34.5 23t-34.5 24q49 66 122.5 103.5t188.5 37.5q68 0 126 -13.5t100 -47t66.5 -90t24.5 -142.5v-729h-90v96h-6q-47 -68 -125 -89 t-158 -21q-141 0 -220 77.5t-79 206.5zM150 276q0 -92 60 -150t177 -58q47 0 94 10t85 34.5t61.5 63.5t23.5 96v224h-264q-102 0 -169.5 -52.5t-67.5 -167.5z" />
<glyph unicode="&#x431;" horiz-adv-x="858" d="M80 502q0 117 4 225.5t14 179.5q10 100 34 175t61.5 129.5t88 92t111.5 66.5q66 31 137.5 55.5t157.5 59.5q2 -4 6 -14.5t8.5 -21.5t9.5 -21.5t7 -12.5q-66 -29 -123 -48t-108.5 -39.5t-95.5 -45.5t-79 -61q-76 -66 -103.5 -169.5t-37.5 -238.5q4 0 6 -2q47 86 124 128 t155 42q111 0 179.5 -44t98.5 -124q29 -70 36 -157t7 -175q0 -127 -18.5 -213t-61.5 -149q-47 -68 -117.5 -99.5t-156.5 -31.5q-104 0 -172 34.5t-107 100.5q-35 59 -50 152.5t-15 226.5zM170 469q0 -96 9 -167t36 -120q57 -115 215 -114q131 0 199 96q29 41 44 114.5 t15 198.5q0 92 -7 169t-26 124q-27 63 -76 95t-135 32t-142 -42t-87 -112q-25 -53 -34 -124.5t-11 -149.5z" />
<glyph unicode="&#x432;" d="M106 0v1008h347q156 0 230.5 -72t74.5 -188q0 -66 -29 -126.5t-104 -93.5v-2q45 -14 73.5 -40.5t46 -59.5t24.5 -69.5t7 -69.5q0 -88 -28.5 -144.5t-77.5 -88t-115 -43t-139 -11.5h-310zM195 80h221q145 0 208.5 52.5t63.5 156.5q0 86 -52 142t-165 56h-276v-407z M195 561h280q37 0 71 8.5t61.5 28.5t44 57.5t16.5 92.5q0 86 -57.5 134t-168.5 48h-247v-369z" />
<glyph unicode="&#x433;" horiz-adv-x="722" d="M104 0v1008h603v-80h-512v-928h-91z" />
<glyph unicode="&#x434;" horiz-adv-x="987" d="M25 74l69 6q33 23 55.5 56.5t39 89t26.5 136t16 195.5l19 451h598v-928h78v-344h-88v264h-725v-264h-88v338zM207 80h551v850h-424l-19 -391q-8 -166 -32.5 -284t-75.5 -175z" />
<glyph unicode="&#x435;" horiz-adv-x="835" d="M74 520q0 94 14 185.5t53 161t107.5 112.5t177.5 43q100 0 165.5 -35t104.5 -95.5t54.5 -139t15.5 -166.5v-94h-602q0 -100 12 -179.5t43 -134.5t84 -83.5t135 -28.5q74 0 135.5 38.5t83.5 98.5l78 -37q-35 -86 -114.5 -133t-178.5 -47q-113 0 -184.5 35.5t-112.5 104.5 t-56 168t-15 226zM166 565h508v6q0 74 -9.5 139.5t-37 117t-75.5 81t-126 29.5t-127 -30.5t-79 -82t-41 -119t-13 -141.5z" />
<glyph unicode="&#x436;" horiz-adv-x="1275" d="M33 0q6 20 18 66.5t26.5 97.5t28 97t19.5 67q20 76 51 128t103 68q-57 16 -89 67.5t-53 125.5l-84 291h84q6 -18 18.5 -62.5t27 -91.5t25.5 -91t17 -63q14 -47 36 -75.5t48.5 -45t55 -22.5t57.5 -6h172v457h88v-457h170q29 0 57.5 6t55 22.5t48 45t36.5 75.5l90 308h82 l-82 -291q-23 -74 -54.5 -125t-89.5 -68q72 -16 102.5 -68.5t53.5 -127.5l90 -328h-88q-6 20 -18.5 64.5t-24.5 93.5t-24.5 93t-18.5 64q-14 49 -33.5 81t-44 50.5t-54.5 24.5t-67 6h-186v-477h-88v477h-188q-72 0 -121 -30.5t-78 -131.5l-84 -315h-90z" />
<glyph unicode="&#x437;" horiz-adv-x="759" d="M20 158l72 39q25 -63 95.5 -96t152.5 -33q51 0 96 13t79 41t53.5 68.5t19.5 98.5q0 109 -57.5 156t-143.5 47h-119v73h123q76 0 131.5 46t55.5 141q0 92 -61.5 139t-160.5 47q-80 0 -146.5 -32t-92.5 -95l-70 39q18 43 50 74.5t73 53t89 32t97 10.5q152 0 232 -68.5 t80 -193.5q0 -29 -6.5 -62.5t-22.5 -64.5t-43 -59t-68 -44q90 -33 120 -99.5t30 -139.5q0 -74 -25.5 -130.5t-70.5 -94t-106.5 -57t-133.5 -19.5q-53 0 -102.5 9t-92.5 29.5t-75.5 53.5t-51.5 78z" />
<glyph unicode="&#x438;" horiz-adv-x="940" d="M109 0v1006h92v-854l542 854h86v-1006h-90v846h-2l-252 -391q-72 -117 -144.5 -228.5t-143.5 -226.5h-88z" />
<glyph unicode="&#x439;" horiz-adv-x="940" d="M109 0v1006h92v-854l542 854h86v-1006h-90v846h-2l-252 -391q-72 -117 -144.5 -228.5t-143.5 -226.5h-88zM199 1395h77q14 -63 64.5 -109.5t118.5 -46.5q72 0 122 44t60 112h76q-6 -37 -22.5 -78t-47.5 -75t-78 -55.5t-112 -21.5q-61 0 -107.5 21.5t-78 55.5t-49 75 t-23.5 78z" />
<glyph unicode="&#x43a;" horiz-adv-x="819" d="M109 0v1008h88v-457h190q29 0 58.5 6t55 22.5t47 46t36.5 76.5l90 306h82l-84 -291q-23 -74 -54.5 -124t-87.5 -67q70 -18 102 -70.5t52 -127.5l92 -328h-90l-86 315q-29 100 -77 131t-120 31h-206v-477h-88z" />
<glyph unicode="&#x43b;" horiz-adv-x="884" d="M10 39q53 31 89 66.5t57.5 93t31 143.5t9.5 219v447h573v-1008h-90v930h-397v-420q0 -119 -13.5 -208t-41 -153.5t-73.5 -107.5t-110 -72z" />
<glyph unicode="&#x43c;" horiz-adv-x="1077" d="M104 0v1008h91q51 -104 101 -205t103 -203l146 -291q8 18 34.5 70.5t62.5 123t76 150.5t75.5 152t63.5 127t38 76h88v-1008h-90v819q-6 -14 -30.5 -62t-57.5 -113.5t-71 -139.5t-70.5 -138.5t-56 -112.5t-29.5 -60h-68q-35 68 -68.5 136t-68.5 136q-41 78 -82 161 t-94 189l-2 -2v-813h-91z" />
<glyph unicode="&#x43d;" horiz-adv-x="872" d="M104 0v1008h93v-455h481v455h92v-1008h-92v475h-481v-475h-93z" />
<glyph unicode="&#x43e;" horiz-adv-x="858" d="M82 500q0 100 7 181t28 140q37 102 119.5 151.5t195.5 49.5q92 0 155.5 -32t104.5 -85q47 -55 64.5 -157.5t17.5 -245.5q0 -92 -8 -181.5t-31 -146.5q-39 -100 -119.5 -143t-193.5 -43q-86 0 -145.5 25.5t-98.5 72.5q-53 55 -74.5 158.5t-21.5 255.5zM170 492 q0 -141 18.5 -223.5t59.5 -127.5q59 -76 180 -75q74 0 136.5 36.5t90.5 112.5q20 51 25.5 128t3.5 167q0 221 -39 299q-29 66 -85 98.5t-130 32.5q-72 0 -129 -30.5t-90 -92.5q-25 -47 -32 -129t-9 -196z" />
<glyph unicode="&#x43f;" horiz-adv-x="907" d="M121 0v1008h667v-1008h-90v932h-487v-932h-90z" />
<glyph unicode="&#x440;" horiz-adv-x="862" d="M96 -416v1424h88v-136l4 -2q47 88 117 120t148 32q109 0 173 -43t97 -113.5t42 -164t9 -191.5t-10 -191.5t-46 -167t-101.5 -118.5t-176.5 -45q-92 0 -150.5 39t-101.5 102h-4v-545h-88zM184 500q0 -70 6.5 -144.5t31 -137t72.5 -103.5t132 -43q88 0 139 37.5t77 99 t33 140.5t7 159q0 88 -7 167t-34 137t-76 92t-133 34q-90 0 -140 -43t-73.5 -107.5t-29 -142.5t-5.5 -145z" />
<glyph unicode="&#x441;" horiz-adv-x="761" d="M70 510q0 102 15 194.5t56 163t113 111.5t182 41q106 0 179 -45t108 -131q-20 -12 -38.5 -22.5t-39.5 -20.5q-23 61 -77 99t-132 38q-92 0 -146 -37t-84 -97.5t-39 -137t-9 -156.5q0 -78 9 -157t37.5 -142.5t83 -103t144.5 -39.5q78 0 132 36.5t77 96.5 q18 -10 37.5 -19.5t40.5 -19.5q-35 -86 -111 -130t-180 -44q-115 0 -185.5 41t-108.5 112.5t-51 165.5t-13 203z" />
<glyph unicode="&#x442;" horiz-adv-x="673" d="M6 930v78h660v-78h-285v-930h-90v930h-285z" />
<glyph unicode="&#x443;" horiz-adv-x="749" d="M12 1006h97l139 -445l127 -426h4q6 25 26.5 91.5t48 155.5t57.5 188.5t57.5 187.5t47 155.5t27.5 92.5h94q-96 -311 -190 -617.5t-193 -615.5q-29 -98 -80 -145.5t-139 -47.5h-41v78h33q66 0 98.5 44t55.5 120l55 178q-84 252 -162 502t-162 504z" />
<glyph unicode="&#x444;" horiz-adv-x="1028" d="M78 500q0 98 7 177t32 138q41 104 134 154.5t216 52.5v426h86q0 -106 1 -213t1 -213q129 -4 210 -49t120 -119q35 -66 47 -158t12 -198q0 -96 -12 -196.5t-58 -168.5q-47 -72 -127.5 -107.5t-191.5 -37.5q0 -98 -1 -196.5t-1 -197.5h-86v394q-78 0 -140.5 17.5 t-109.5 47.5q-78 55 -108.5 167t-30.5 280zM166 489q0 -154 23.5 -237.5t82.5 -128.5q72 -56 193 -60q0 219 1 437.5t1 437.5q-82 -2 -151.5 -34t-104.5 -93q-25 -47 -35 -129t-10 -193zM553 63q96 4 164.5 40t97.5 104q25 43 33 122t8 154q0 102 -10 186.5t-37 135.5 q-35 68 -103.5 100.5t-152.5 32.5v-875z" />
<glyph unicode="&#x445;" horiz-adv-x="751" d="M35 0l287 518l-271 490h101l223 -426l225 426h102l-274 -492l289 -516h-101l-241 451l-240 -451h-100z" />
<glyph unicode="&#x446;" horiz-adv-x="903" d="M106 0v1008h91v-928h487v928h90v-928h82v-344h-86v264h-664z" />
<glyph unicode="&#x447;" horiz-adv-x="819" d="M57 672v336h90v-316q0 -109 48.5 -165t166.5 -56q59 0 132 23.5t133 66.5v447h90v-1008h-90v473q-72 -43 -148 -63.5t-137 -20.5q-137 0 -211 68.5t-74 214.5z" />
<glyph unicode="&#x448;" horiz-adv-x="1353" d="M109 0v1008h88v-926h432v926h90v-926h438v926h88v-1008h-1136z" />
<glyph unicode="&#x449;" horiz-adv-x="1378" d="M106 0v1008h89v-928h432v928h90v-928h438v928h88v-928h82v-338h-84v258h-1135z" />
<glyph unicode="&#x44a;" horiz-adv-x="1036" d="M14 930v78h400v-433h256q90 0 151.5 -22.5t99 -61t54 -89t16.5 -107.5q0 -135 -75.5 -215t-249.5 -80h-340v930h-312zM414 80h258q109 0 169 56.5t60 156.5q0 88 -55 144.5t-182 56.5h-250v-414z" />
<glyph unicode="&#x44b;" horiz-adv-x="1071" d="M106 0v1008h89v-433h245q90 0 153.5 -22.5t103.5 -61t57.5 -89t17.5 -107.5q0 -135 -82 -215t-256 -80h-328zM195 80h237q125 0 187.5 57.5t62.5 155.5q0 88 -60.5 144.5t-187.5 56.5h-239v-414zM870 0v1008h91v-1008h-91z" />
<glyph unicode="&#x44c;" horiz-adv-x="794" d="M88 0v1008h90v-433h246q90 0 152.5 -22.5t102.5 -61t57.5 -89t17.5 -107.5q0 -135 -82 -215t-256 -80h-328zM176 82h240q125 0 186.5 56.5t61.5 154.5q0 88 -60.5 144.5t-187.5 56.5h-240v-412z" />
<glyph unicode="&#x44d;" horiz-adv-x="763" d="M31 162l80 39q23 -57 78 -95t130 -38q86 0 139.5 34.5t83 92t40 131t12.5 153.5h-385v74h385q-2 74 -12.5 143.5t-38 122.5t-77.5 86t-136 33q-74 0 -133.5 -38t-81.5 -99l-78 43q35 82 112.5 131t182.5 49q111 0 179.5 -41t106 -111.5t52 -163t14.5 -192.5 q0 -106 -15.5 -202.5t-55.5 -169t-109.5 -115.5t-181.5 -43q-104 0 -180 45t-111 131z" />
<glyph unicode="&#x44e;" horiz-adv-x="1093" d="M109 0v1006h92v-455h135q0 51 3 96t7 86q18 135 105.5 211t222.5 76q78 0 138 -25.5t101 -68.5q35 -37 53.5 -89.5t26.5 -110.5t9.5 -117.5t1.5 -108.5q0 -100 -7 -183q-4 -51 -14 -93t-29 -77q-78 -160 -284 -159q-143 0 -221 67.5t-101 206.5q-4 49 -8 101.5t-4 109.5 h-135v-473h-92zM422 496q0 -55 1 -109.5t8 -104t25.5 -92.5t55.5 -73q61 -51 160 -51q74 0 134 38.5t83 112.5q23 72 24.5 140.5t1.5 152.5t-5 163t-33 144q-58 121 -205 121q-70 0 -124 -29.5t-87 -87.5q-10 -18 -17.5 -42.5t-11.5 -61.5t-7 -90.5t-3 -130.5z" />
<glyph unicode="&#x44f;" horiz-adv-x="860" d="M51 0l78 309q14 61 42 111.5t85 71.5q-90 25 -131 86t-41 147q0 125 74.5 204t232.5 79h357v-1008h-89v463h-253q-70 0 -118 -31t-73 -129l-74 -303h-90zM172 723q0 -100 64.5 -141t173.5 -41h249v389h-262q-115 0 -170 -56.5t-55 -150.5z" />
<glyph unicode="&#x451;" horiz-adv-x="835" d="M74 520q0 94 14 185.5t53 161t107.5 112.5t177.5 43q100 0 165.5 -35t104.5 -95.5t54.5 -139t15.5 -166.5v-94h-602q0 -100 12 -179.5t43 -134.5t84 -83.5t135 -28.5q74 0 135.5 38.5t83.5 98.5l78 -37q-35 -86 -114.5 -133t-178.5 -47q-113 0 -184.5 35.5t-112.5 104.5 t-56 168t-15 226zM166 565h508v6q0 74 -9.5 139.5t-37 117t-75.5 81t-126 29.5t-127 -30.5t-79 -82t-41 -119t-13 -141.5zM209 1237v104h100v-104h-100zM553 1237v104h98v-104h-98z" />
<glyph unicode="&#x452;" horiz-adv-x="913" d="M6 1192v74h111v217h86v-217h430v-74h-430v-352h6q37 78 110.5 125t167.5 47q100 0 163 -36t98.5 -102.5t49 -162t13.5 -213.5q0 -115 -15.5 -212.5t-58.5 -169t-118.5 -109.5t-194.5 -32v78q94 -6 153.5 29t91 97.5t43 143t11.5 166.5q0 123 -13.5 207t-42 135.5 t-75.5 73t-117 21.5q-86 0 -139 -42t-83 -106.5t-40 -143.5t-10 -155v-479h-86v1192h-111z" />
<glyph unicode="&#x453;" horiz-adv-x="714" d="M100 0v1004h600v-78h-510v-926h-90zM311 1167l148 314l98 -39l-192 -297z" />
<glyph unicode="&#x454;" horiz-adv-x="757" d="M68 510q0 102 15 194.5t56 163t113 111.5t182 41q106 0 179 -45t108 -131q-20 -12 -38.5 -22.5t-39.5 -20.5q-23 61 -77 99t-130 38q-86 0 -139 -33t-84 -87t-42 -123.5t-13 -143.5h387v-74h-387q0 -74 10 -147.5t40 -132t83 -94t139 -35.5q78 0 132 36.5t77 96.5l78 -39 q-35 -86 -110 -130t-181 -44q-115 0 -184.5 41t-108.5 112.5t-52 165.5t-13 203z" />
<glyph unicode="&#x455;" horiz-adv-x="800" d="M53 170l78 43q70 -147 268 -147q100 0 170 49t70 155q0 53 -17.5 87t-49 57.5t-75.5 38t-98 28.5q-72 18 -130 40t-100 52.5t-65.5 73.5t-23.5 105q0 125 84 197.5t233 72.5q240 0 310 -166l-76 -41q-31 66 -90.5 95.5t-145.5 29.5q-111 0 -167 -53t-56 -135 q0 -47 19.5 -77t55.5 -51.5t84 -36t103 -28.5q72 -16 127 -37.5t93 -55.5t57.5 -81t19.5 -117q0 -61 -20.5 -112.5t-62.5 -89t-106.5 -59t-150.5 -21.5q-123 0 -207 43t-131 141z" />
<glyph unicode="&#x456;" horiz-adv-x="362" d="M133 1286v100h96v-100h-96zM137 0v1010h88v-1010h-88z" />
<glyph unicode="&#x457;" horiz-adv-x="362" d="M-39 1223v104h100v-104h-100zM137 0v1010h88v-1010h-88zM305 1223v104h98v-104h-98z" />
<glyph unicode="&#x458;" horiz-adv-x="376" d="M-16 -340h45q70 2 94 49t24 121v1178h93v-1196q0 -102 -46.5 -166t-146.5 -64h-63v78zM145 1286v98h99v-98h-99z" />
<glyph unicode="&#x459;" horiz-adv-x="1325" d="M12 41q51 31 88 65.5t58.5 89t32 136.5t10.5 207v469h504v-428h243q90 0 152.5 -24t102.5 -62.5t58.5 -90t18.5 -108.5q0 -141 -82 -218t-256 -77h-330l2 930h-329v-418q0 -121 -12.5 -209t-41 -152.5t-73.5 -107.5t-109 -74zM702 82h240q123 0 185.5 56.5t62.5 154.5 q0 86 -60.5 145.5t-187.5 59.5h-240v-416z" />
<glyph unicode="&#x45a;" horiz-adv-x="1333" d="M111 0v1008h88v-430h409v430h90v-430h246q90 0 152.5 -23t102.5 -61.5t58.5 -90t18.5 -108.5q0 -139 -82 -217t-258 -78h-328v494h-409v-494h-88zM698 82h238q125 0 187.5 56.5t62.5 154.5q0 86 -60.5 143.5t-187.5 57.5h-240v-412z" />
<glyph unicode="&#x45b;" horiz-adv-x="897" d="M-4 1192v74h115v219h88v-219h424v-74h-424v-324h4q43 78 116.5 116t153.5 38q147 0 226 -85t79 -224v-713h-90v684q0 117 -55 183.5t-172 66.5q-57 0 -105.5 -20.5t-84 -57.5t-55 -87t-19.5 -107v-662h-86v1192h-115z" />
<glyph unicode="&#x45c;" horiz-adv-x="819" d="M109 0v1008h88v-457h190q29 0 58.5 6t55 22.5t47 46t36.5 76.5l90 306h82l-84 -291q-23 -74 -54.5 -124t-87.5 -67q70 -18 102 -70.5t52 -127.5l92 -328h-90l-86 315q-29 100 -77 131t-120 31h-206v-477h-88zM358 1169l150 312l96 -37l-192 -297z" />
<glyph unicode="&#x45e;" horiz-adv-x="749" d="M12 1006h97l139 -445l127 -426h4q6 25 26.5 91.5t48 155.5t57.5 188.5t57.5 187.5t47 155.5t27.5 92.5h94q-96 -311 -190 -617.5t-193 -615.5q-29 -98 -80 -145.5t-139 -47.5h-41v78h33q66 0 98.5 44t55.5 120l55 178q-84 252 -162 502t-162 504zM123 1380h76 q10 -63 61 -108t115 -45q66 0 117 44t61 109h76q-6 -39 -22.5 -78.5t-46.5 -73.5t-76 -55.5t-109 -21.5t-108.5 21.5t-76 55.5t-47 73.5t-20.5 78.5z" />
<glyph unicode="&#x45f;" horiz-adv-x="886" d="M111 0v1010h88v-928h489v928h90v-1010h-289v-272h-92v272h-286z" />
<glyph unicode="&#x490;" horiz-adv-x="878" d="M135 0v1425h631v238h86v-324h-623v-1339h-94z" />
<glyph unicode="&#x491;" horiz-adv-x="724" d="M106 0v1008h515v219h86v-299h-510v-928h-91z" />
<glyph unicode="&#x4d9;" horiz-adv-x="831" d="M72 424v96h600q0 98 -13.5 177t-44 133.5t-83 84t-130.5 29.5q-74 0 -137 -40t-90 -97l-78 37q35 86 121 133t184 47q109 0 178.5 -37t110.5 -106.5t56.5 -168t15.5 -220.5q0 -96 -14.5 -186.5t-53.5 -161t-107.5 -113.5t-174.5 -43q-100 0 -166 34.5t-105 95t-54 139.5 t-15 167zM164 438q0 -74 9 -139.5t37 -116.5t75 -80.5t125 -29.5t127 30.5t78.5 82t41 119t13.5 140.5h-506v-6z" />
<glyph unicode="&#x2000;" horiz-adv-x="909" />
<glyph unicode="&#x2001;" horiz-adv-x="1819" />
<glyph unicode="&#x2002;" horiz-adv-x="909" />
<glyph unicode="&#x2003;" horiz-adv-x="1819" />
<glyph unicode="&#x2004;" horiz-adv-x="606" />
<glyph unicode="&#x2005;" horiz-adv-x="454" />
<glyph unicode="&#x2006;" horiz-adv-x="303" />
<glyph unicode="&#x2007;" horiz-adv-x="303" />
<glyph unicode="&#x2008;" horiz-adv-x="227" />
<glyph unicode="&#x2009;" horiz-adv-x="363" />
<glyph unicode="&#x200a;" horiz-adv-x="101" />
<glyph unicode="&#x2010;" horiz-adv-x="708" d="M106 510v82h508v-82h-508z" />
<glyph unicode="&#x2011;" horiz-adv-x="708" d="M106 510v82h508v-82h-508z" />
<glyph unicode="&#x2012;" horiz-adv-x="708" d="M106 510v82h508v-82h-508z" />
<glyph unicode="&#x2013;" horiz-adv-x="1017" d="M41 496v84h936v-84h-936z" />
<glyph unicode="&#x2014;" horiz-adv-x="2041" d="M41 496v84h1960v-84h-1960z" />
<glyph unicode="&#x2018;" horiz-adv-x="358" d="M117 1133v127l78 194h55l-45 -197h28v-124h-116z" />
<glyph unicode="&#x2019;" horiz-adv-x="358" d="M117 1133l45 198h-29v125h117v-127l-78 -196h-55z" />
<glyph unicode="&#x201a;" horiz-adv-x="317" d="M84 -199q12 49 23.5 99.5t23.5 97.5h-31v123h117v-117l-78 -203h-55z" />
<glyph unicode="&#x201c;" horiz-adv-x="495" d="M80 1133v127l78 194h55l-47 -197h31v-124h-117zM276 1133v127l76 194h58l-48 -197h29v-124h-115z" />
<glyph unicode="&#x201d;" horiz-adv-x="495" d="M82 1135l47 196h-29v125h115v-127l-76 -194h-57zM279 1135l47 196h-31v125h117v-127l-78 -194h-55z" />
<glyph unicode="&#x201e;" horiz-adv-x="571" d="M96 -199l47 197h-30v123h116v-117l-77 -203h-56zM326 -199l47 197h-31v123h117v-117l-78 -203h-55z" />
<glyph unicode="&#x2020;" horiz-adv-x="800" d="M29 846v84h323v495h92v-495h324v-84h-324v-1252h-92v1252h-323z" />
<glyph unicode="&#x2021;" horiz-adv-x="800" d="M29 279v83h323v484h-323v84h323v495h92v-495h324v-84h-324v-484h324v-83h-324v-685h-92v685h-323z" />
<glyph unicode="&#x2022;" horiz-adv-x="681" d="M172 549q0 74 50 126t122 52q37 0 68.5 -14.5t55.5 -38t38 -56t14 -69.5t-14 -70t-38 -56.5t-55.5 -37.5t-68.5 -14q-72 0 -122 52t-50 126z" />
<glyph unicode="&#x2026;" horiz-adv-x="1144" d="M104 0v125h115v-125h-115zM492 0v125h114v-125h-114zM883 0v125h114v-125h-114z" />
<glyph unicode="&#x202f;" horiz-adv-x="363" />
<glyph unicode="&#x2030;" horiz-adv-x="1728" d="M72 760v473q0 96 64.5 146.5t154.5 50.5q88 0 151.5 -50.5t63.5 -146.5v-473q0 -96 -64.5 -147.5t-150.5 -51.5q-90 0 -154.5 51.5t-64.5 147.5zM147 764q0 -59 39 -96t105 -37q61 0 100 37t39 96v467q0 59 -39 96t-100 37q-66 0 -105 -37t-39 -96v-467zM193 -35 l753 1497h74l-756 -1497h-71zM717 188v478q0 47 17.5 83.5t48 61.5t70.5 37t83 12q86 0 150.5 -49t64.5 -145v-478q0 -96 -64.5 -146t-150.5 -50q-43 0 -83 13t-70.5 38t-48 61.5t-17.5 83.5zM793 190q0 -59 38.5 -94t104.5 -35q61 0 100 35t39 94v474q0 59 -39 94t-100 35 q-66 0 -104.5 -35t-38.5 -94v-474zM1229 188v478q0 47 17.5 83.5t48 61.5t70.5 37t83 12q86 0 150.5 -49t64.5 -145v-478q0 -96 -64.5 -146t-150.5 -50q-43 0 -83 13t-70.5 38t-48 61.5t-17.5 83.5zM1305 190q0 -59 38.5 -94t104.5 -35q61 0 100 35t39 94v474q0 59 -39 94 t-100 35q-66 0 -104.5 -35t-38.5 -94v-474z" />
<glyph unicode="&#x2039;" horiz-adv-x="505" d="M102 461l230 366h90l-225 -366l225 -367h-90z" />
<glyph unicode="&#x203a;" horiz-adv-x="497" d="M102 94l226 367l-226 366h91l231 -366l-229 -367h-93z" />
<glyph unicode="&#x2044;" horiz-adv-x="286" d="M-289 -35l754 1497h74l-756 -1497h-72z" />
<glyph unicode="&#x205f;" horiz-adv-x="454" />
<glyph unicode="&#x20ac;" d="M29 586v65h77v144h-77v65h77v178q0 88 26 162t74 127t116.5 82t152.5 29q123 0 218 -61.5t130 -182.5l-86 -29q-29 92 -99.5 141.5t-162.5 49.5q-68 0 -120 -24.5t-88 -67.5t-53 -101.5t-17 -124.5v-178h426v-65h-426v-144h428v-65h-428v-205q0 -66 18 -123t54 -99 t88.5 -66.5t117.5 -24.5q201 0 264 194l86 -26q-37 -129 -132 -189.5t-218 -60.5q-172 0 -270.5 109.5t-98.5 295.5v195h-77z" />
<glyph unicode="&#x2122;" horiz-adv-x="1445" d="M68 1354v71h489v-71h-207v-715h-74v715h-208zM653 639v784h72q23 -49 57.5 -124.5t72.5 -156.5t73 -157t59 -125q25 49 59.5 125t72.5 157t73 156.5t57 124.5h68v-784h-72v602l-231 -479h-58l-229 483h-2v-606h-72z" />
<glyph unicode="&#x2202;" horiz-adv-x="882" d="M76 432q0 106 28.5 190.5t74.5 142.5t105.5 90t121.5 32q63 0 143 -36t160 -144q2 162 -26 288.5t-81 214.5t-126 134.5t-159 46.5q-18 0 -43.5 -3.5t-50.5 -9.5l-2 72q29 8 55.5 10t49.5 2q125 0 213 -63.5t144 -168t82 -237.5t26 -274q0 -176 -29 -314.5t-80 -232.5 t-123 -143t-156 -49q-70 0 -130 28.5t-104 85t-68.5 141t-24.5 197.5zM156 436q0 -96 20.5 -166.5t54 -118t78.5 -70t97 -22.5q72 0 126 48.5t92 125t58 174t25 193.5q-78 119 -152 165t-139 46q-63 0 -111.5 -34t-81.5 -87t-50 -119.5t-17 -134.5z" />
<glyph unicode="&#x220f;" horiz-adv-x="1056" d="M135 -178v1603h789v-1603h-93v1519h-606v-1519h-90z" />
<glyph unicode="&#x2211;" horiz-adv-x="796" d="M51 -98l314 725l-314 721v77h690v-82h-591l313 -716l-313 -723h608v-84h-707v82z" />
<glyph unicode="&#x221a;" horiz-adv-x="942" d="M39 727l211 86l260 -844q6 31 21.5 113t37 195.5t48 250t54 276.5t53.5 276.5t47.5 250t36.5 195.5t21 112h82l-354 -1814h-82l-276 889l-136 -56z" />
<glyph unicode="&#x221e;" horiz-adv-x="1269" d="M61 539q0 57 20.5 106t55.5 84t81 54.5t97 19.5q43 0 86 -16.5t85 -46t79 -67.5t68 -81q20 31 41 51q59 66 132 113t146 47q51 0 96.5 -18.5t79 -53.5t53 -83t19.5 -109t-20.5 -110.5t-54 -85.5t-81 -54.5t-98.5 -18.5q-90 0 -165.5 59.5t-149.5 153.5 q-76 -96 -149.5 -154.5t-170.5 -58.5q-51 0 -97 18.5t-80 53.5t-53.5 84t-19.5 113zM129 539q0 -43 15.5 -80t41 -62.5t59.5 -41t72 -15.5q35 0 72 17.5t73 45t67.5 62.5t56.5 72q-25 35 -55.5 69.5t-66.5 63t-74 46t-75 17.5t-70.5 -15.5t-59 -42t-41 -62t-15.5 -74.5z M676 539q27 -37 58.5 -72t66.5 -63.5t70.5 -46t72.5 -17.5q78 0 133.5 56.5t55.5 142.5q0 41 -14.5 76.5t-40 61t-58.5 41t-70 15.5t-74.5 -16.5t-73.5 -44t-68 -62.5t-58 -71z" />
<glyph unicode="&#x222b;" horiz-adv-x="591" d="M-33 -309l17 65q16 -4 35.5 -6t29.5 -2q45 2 78 23.5t54.5 67.5t34.5 119t20 175q4 80 7 151.5t6 146.5t4 158t1 185v155.5t1 120t3 92.5t4 72q12 188 72.5 275.5t173.5 87.5q18 0 45 -2t49 -10l-14 -66q-37 6 -66 6q-45 0 -78.5 -19.5t-56 -65.5t-35 -120.5 t-16.5 -185.5q0 -14 -1 -65.5t-2 -123t-2 -152.5t-2 -152.5t-2 -125t-1 -67.5q-4 -123 -8.5 -225.5t-14.5 -184.5q-23 -180 -80 -260t-170 -80q-16 0 -39.5 2.5t-46.5 10.5z" />
<glyph unicode="&#x2248;" d="M31 406q35 49 85 77.5t101 28.5q49 0 95 -15.5t92.5 -34t93.5 -33.5t96 -15q92 0 156 90l47 -41q-33 -61 -88.5 -92t-118.5 -31q-49 0 -98.5 15.5t-97.5 33t-93 32.5t-86 15t-72.5 -20.5t-62.5 -55.5zM31 705q35 49 85 77.5t101 28.5q49 0 95 -15.5t92.5 -34t93.5 -33.5 t96 -15q92 0 156 90l47 -41q-33 -61 -88.5 -92t-118.5 -31q-49 0 -98.5 15.5t-97.5 33t-93 32.5t-86 15t-72.5 -20.5t-62.5 -55.5z" />
<glyph unicode="&#x2260;" d="M43 371v78h223l166 251h-389v76h440l181 273h81l-180 -273h230v-76h-281l-166 -251h447v-78h-498l-156 -236l-80 4l154 232h-172z" />
<glyph unicode="&#x2264;" d="M43 551v72l750 333v-88l-654 -280q16 -6 66.5 -27.5t117 -51.5t142.5 -62.5t143.5 -62.5t117.5 -51.5t67 -27.5v-86zM45 43v78h746v-78h-746z" />
<glyph unicode="&#x2265;" d="M45 43v78h748v-78h-748zM45 219v86q16 6 66.5 27.5t118 51.5t143.5 62.5t143.5 62.5t117.5 51.5t66 27.5l-655 280v88l750 -333v-72z" />
<glyph unicode="&#x25ca;" horiz-adv-x="690" d="M51 578q59 141 120.5 282t123.5 283h80q61 -141 124.5 -282.5t125.5 -282.5q-61 -141 -124 -282.5t-126 -283.5h-80q-61 141 -122.5 282.5t-121.5 283.5zM129 575l205 -471h2l211 471q-53 119 -106.5 237t-106.5 237h-2z" />
<glyph unicode="&#x25fc;" horiz-adv-x="1003" d="M0 0v1004h1004v-1004h-1004z" />
</font>
</defs>
</svg>
